<?xml version="1.0" standalone="no"?>
<!DOCTYPE svg PUBLIC "-//W3C//DTD SVG 20010904//EN"
 "http://www.w3.org/TR/2001/REC-SVG-20010904/DTD/svg10.dtd">
<svg version="1.0" xmlns="http://www.w3.org/2000/svg"
 width="500.000000pt" height="500.000000pt" viewBox="0 0 500.000000 500.000000"
 preserveAspectRatio="xMidYMid meet">
<metadata>
Created by potrace 1.14, written by Peter Selinger 2001-2017
</metadata>
<g transform="translate(0.000000,500.000000) scale(0.100000,-0.100000)"
fill="#000000" stroke="none">
<path d="M2471 4252 c-1 -7 -6 -10 -11 -7 -6 3 -1 -11 11 -32 11 -21 14 -29 5
-19 -12 15 -16 16 -16 5 0 -11 -2 -12 -9 0 -6 9 -10 10 -16 2 -5 -9 -11 -9
-22 1 -14 11 -15 10 -9 -12 6 -24 6 -24 -5 -3 -11 21 -12 21 -31 3 -11 -10
-18 -23 -14 -28 3 -5 -5 -7 -18 -5 -13 3 -27 -1 -31 -8 -6 -8 -4 -10 6 -4 10
6 10 4 -1 -6 -8 -8 -20 -20 -26 -27 -9 -10 -13 -9 -18 3 -4 11 -2 14 6 9 7 -4
8 -3 4 5 -10 16 -38 -6 -30 -23 3 -6 -1 -3 -9 7 -17 21 -24 22 -24 2 0 -8 4
-12 8 -10 4 3 9 -1 12 -8 4 -10 -5 -13 -33 -12 -35 1 -38 -1 -35 -24 2 -21 1
-22 -9 -10 -11 16 -49 23 -40 7 3 -5 9 -6 13 -4 4 3 8 -1 8 -7 0 -7 -9 -14
-19 -14 -10 -1 -16 2 -13 8 4 5 1 9 -4 9 -14 0 -14 -13 0 -27 9 -9 2 -11 -30
-8 -37 3 -39 2 -26 -11 19 -20 19 -30 0 -14 -14 12 -20 4 -16 -22 1 -8 -33 -3
-52 8 -6 4 -9 4 -5 -1 4 -4 3 -15 -4 -22 -9 -11 -9 -17 3 -24 8 -5 9 -9 3 -9
-6 0 -19 10 -28 23 -9 12 -14 16 -11 10 3 -7 1 -22 -5 -32 -8 -17 -15 -19 -35
-11 -17 6 -25 6 -25 -1 0 -6 -5 -7 -12 -3 -6 4 -8 3 -5 -4 4 -5 15 -9 25 -7 9
1 11 0 3 -2 -12 -4 -12 -6 0 -15 10 -7 9 -8 -6 -3 -39 13 -52 13 -52 -1 0 -10
4 -11 13 -3 9 7 14 6 20 -3 4 -7 3 -10 -1 -5 -5 4 -17 -1 -28 -10 -11 -10 -17
-12 -13 -5 4 7 1 12 -8 12 -9 0 -17 -4 -17 -10 -1 -5 -2 -16 -3 -22 0 -8 -16
-13 -38 -14 -21 0 -41 -4 -45 -9 -5 -4 -3 -5 3 -2 6 3 11 0 11 -7 0 -8 -8 -11
-19 -8 -10 2 -15 9 -11 16 4 7 1 7 -7 -1 -11 -10 -11 -15 1 -29 12 -16 12 -17
-1 -9 -8 5 -22 10 -30 12 -12 1 -11 -1 2 -11 16 -12 16 -14 -5 -23 -13 -6 -31
-7 -46 -1 -13 4 -26 6 -29 3 -3 -3 0 -5 6 -5 20 0 13 -19 -10 -30 -21 -10 -21
-10 -5 3 16 13 16 15 2 21 -9 3 -13 2 -10 -4 3 -6 -1 -13 -9 -16 -9 -3 -13
-10 -10 -15 3 -5 0 -9 -6 -9 -6 0 -8 -5 -5 -10 4 -6 3 -10 -2 -9 -4 1 -10 0
-13 -1 -19 -7 -41 -7 -45 0 -3 5 4 7 15 5 11 -2 18 0 15 5 -7 12 -40 5 -38 -9
2 -6 -2 -11 -7 -11 -6 0 -10 -5 -10 -11 0 -5 5 -7 12 -3 7 4 8 3 4 -4 -4 -6
-13 -9 -21 -5 -11 4 -13 1 -9 -11 4 -9 3 -16 -2 -15 -23 4 -35 -2 -28 -13 6
-10 4 -10 -7 -2 -8 6 -22 11 -33 11 -18 0 -18 -1 0 -14 21 -15 11 -17 -16 -3
-26 14 -47 -12 -26 -32 12 -13 10 -15 -17 -16 -99 -6 -105 -7 -95 -19 8 -10 6
-13 -5 -13 -8 0 -21 -8 -28 -17 -12 -16 -12 -17 1 -7 24 19 60 27 60 14 0 -6
-4 -9 -9 -5 -5 3 -12 1 -16 -5 -4 -6 -10 -8 -15 -5 -5 3 -12 1 -15 -5 -5 -8
-12 -7 -23 2 -13 11 -15 11 -10 -3 3 -9 2 -22 -3 -30 -7 -11 -9 -11 -9 -1 0 7
-5 10 -12 6 -7 -4 -8 -3 -4 5 4 6 12 8 18 5 7 -4 8 -2 4 5 -10 16 -39 -7 -32
-25 3 -9 0 -11 -11 -7 -10 4 -14 2 -10 -4 4 -6 -3 -9 -18 -7 -22 2 -24 0 -13
-19 10 -20 10 -21 -5 -8 -17 14 -52 8 -43 -7 7 -11 -42 -58 -51 -49 -3 4 0 7
8 7 11 0 11 2 -1 10 -10 6 -11 10 -2 10 6 0 12 6 12 12 0 7 -13 -1 -28 -17
-15 -17 -27 -34 -27 -40 1 -5 0 -7 -2 -2 -3 4 -9 5 -14 2 -5 -4 -6 2 -2 12 6
15 4 16 -9 6 -8 -7 -19 -9 -23 -5 -5 4 -4 0 1 -8 12 -21 14 -41 3 -34 -5 3 -7
10 -4 15 3 5 -1 6 -9 3 -9 -3 -12 -12 -9 -21 4 -11 2 -14 -5 -9 -7 4 -12 3
-12 -3 0 -10 -19 -9 -37 2 -9 6 -11 3 -6 -10 6 -15 4 -16 -9 -5 -12 10 -18 10
-27 -2 -15 -17 0 -28 26 -20 17 5 17 5 0 -6 -9 -6 -22 -8 -29 -4 -7 5 -9 2 -5
-9 4 -11 2 -14 -7 -11 -8 3 -17 0 -21 -6 -5 -8 -11 -7 -23 2 -14 11 -15 10 -9
-6 6 -16 5 -17 -8 -6 -8 7 -12 17 -8 23 3 6 1 7 -5 3 -9 -5 -9 -13 0 -29 10
-20 10 -21 -5 -9 -13 11 -17 10 -27 -10 -10 -20 -9 -21 3 -6 12 15 14 15 27
-5 12 -19 11 -20 -2 -10 -8 7 -18 10 -22 6 -12 -12 -48 -14 -61 -3 -9 7 -16 6
-25 -5 -7 -8 -17 -12 -23 -8 -6 3 -7 1 -3 -6 4 -6 12 -9 17 -6 5 4 9 -1 9 -9
0 -10 -6 -13 -17 -9 -11 4 -14 3 -9 -5 6 -10 -6 -17 -18 -9 -2 1 -12 -7 -22
-18 -11 -12 -16 -16 -11 -9 4 7 1 14 -8 18 -9 3 -13 2 -10 -4 3 -6 -6 -15 -21
-20 -19 -8 -25 -15 -21 -30 3 -11 1 -18 -4 -14 -5 3 -9 -1 -9 -8 -1 -7 -7 -2
-15 12 -8 14 -14 19 -15 12 0 -7 -5 -10 -12 -6 -7 4 -8 3 -4 -5 4 -6 12 -9 17
-6 5 4 9 4 9 1 0 -3 -10 -10 -21 -17 -15 -8 -19 -8 -15 0 4 6 2 11 -3 11 -6 0
-11 -5 -11 -11 0 -8 -6 -7 -17 2 -15 13 -15 12 -3 -11 13 -24 12 -24 -5 -10
-17 14 -17 14 -7 -7 8 -15 9 -24 2 -28 -6 -4 -10 -3 -9 2 4 25 -3 24 -21 -2
-11 -16 -20 -25 -20 -20 0 6 5 16 12 23 16 16 -3 15 -24 -2 -10 -7 -14 -17
-10 -21 4 -5 -1 -6 -10 -2 -19 7 -33 -19 -15 -27 7 -3 1 -3 -12 0 -15 4 -21 2
-17 -4 4 -6 -2 -8 -14 -5 -14 4 -20 1 -18 -7 2 -7 -7 -13 -19 -15 -12 -1 -20
1 -18 5 2 3 -5 7 -16 7 -10 1 -19 -3 -19 -8 0 -6 5 -7 10 -4 6 3 10 -1 10 -9
0 -19 -11 -20 -29 -3 -10 10 -12 9 -9 -3 2 -8 -3 -14 -10 -12 -17 3 -15 -15 4
-22 10 -4 13 -2 8 7 -4 7 -1 7 7 -2 11 -10 11 -15 2 -18 -7 -3 -13 -11 -13
-19 0 -9 5 -12 12 -8 7 4 8 3 4 -4 -11 -19 -37 -3 -27 17 8 13 5 17 -12 18
-14 2 -17 -1 -9 -6 7 -4 10 -15 6 -24 -4 -12 -1 -17 10 -17 9 0 16 -5 16 -12
0 -6 3 -8 6 -5 4 3 16 2 27 -4 14 -8 18 -8 13 0 -4 6 -2 11 4 11 6 0 8 5 4 12
-5 7 -3 8 6 3 7 -4 16 -2 20 5 6 9 10 7 15 -9 3 -11 11 -21 16 -21 13 0 11 13
-3 30 -11 12 -10 12 2 3 8 -6 26 -13 40 -15 14 -1 28 -7 32 -13 5 -6 8 -5 8 2
0 7 7 10 15 7 11 -5 14 -1 9 12 -4 15 -4 16 4 5 6 -9 19 -12 33 -8 15 4 30 0
43 -11 18 -16 18 -16 8 4 -9 16 -8 21 3 21 8 0 12 -4 9 -8 -5 -9 47 -6 63 4 7
4 20 -4 32 -19 22 -28 28 -25 12 5 -7 13 -6 18 4 18 8 0 12 -4 9 -8 -5 -9 47
-6 63 4 7 4 20 -4 32 -19 22 -28 28 -25 12 5 -7 13 -6 18 4 18 8 0 12 -4 9 -8
-5 -9 47 -6 63 4 7 4 20 -4 32 -19 22 -28 28 -25 12 5 -7 13 -6 18 4 18 8 0
12 -4 9 -8 -5 -9 47 -6 63 4 7 4 20 -4 32 -19 22 -28 28 -25 12 5 -7 13 -6 18
4 18 8 0 12 -4 9 -9 -4 -5 2 -8 12 -6 13 2 19 -3 18 -14 -1 -10 2 -15 7 -12 5
3 9 12 9 20 0 8 5 12 10 9 6 -4 18 -1 27 7 9 7 14 8 11 3 -4 -6 1 -19 9 -30
15 -20 15 -20 9 1 -6 18 -3 21 19 17 13 -3 23 -9 20 -12 -2 -4 2 -8 10 -8 8 0
13 5 12 11 -1 6 3 10 9 9 6 -1 11 5 11 12 0 11 -4 12 -13 4 -8 -7 -14 -7 -19
1 -3 5 -4 11 -1 11 3 1 9 2 14 3 4 1 14 6 22 11 8 5 24 11 35 12 16 3 17 1 5
-7 -12 -7 -10 -9 7 -7 13 0 25 7 28 15 2 7 1 10 -4 7 -5 -3 -12 -1 -15 4 -9
14 19 7 40 -9 17 -14 18 -14 5 3 -15 20 -2 23 19 5 8 -7 6 -3 -4 10 -19 22
-19 22 2 22 12 0 22 4 22 9 0 5 10 11 23 14 21 6 21 6 3 -8 -11 -8 -15 -15 -9
-15 18 0 34 27 27 46 -5 14 -2 12 14 -6 20 -24 21 -24 15 -2 -5 22 11 52 29
52 5 0 3 -7 -6 -15 -8 -9 -12 -23 -9 -31 4 -12 8 -13 14 -3 4 7 5 17 3 21 -5
8 11 12 30 9 5 -1 4 4 -2 11 -8 11 -7 14 8 14 10 0 17 -4 14 -7 -2 -4 -1 -10
4 -13 4 -2 9 5 9 16 1 12 10 28 20 37 11 10 13 10 5 2 -19 -23 -14 -30 12 -18
20 10 22 15 13 27 -10 13 -10 13 4 3 9 -7 19 -10 22 -6 4 3 7 1 7 -6 0 -7 5
-9 10 -6 6 3 10 1 10 -5 0 -6 -8 -9 -18 -6 -13 5 -18 0 -19 -17 0 -12 1 -16 4
-9 7 19 53 15 53 -5 0 -16 1 -16 13 0 10 14 14 14 31 2 11 -8 16 -20 12 -30
-3 -9 -2 -13 3 -10 6 3 14 -3 20 -12 7 -14 13 -15 22 -6 13 13 39 7 39 -9 0
-7 -5 -6 -13 1 -10 8 -14 7 -14 -3 0 -7 10 -13 21 -12 14 1 20 -4 18 -14 -2
-8 0 -12 4 -7 4 4 17 1 28 -6 12 -8 29 -13 39 -11 10 1 14 -2 10 -9 -4 -6 0
-8 10 -4 9 3 18 1 21 -6 3 -9 7 -8 14 2 8 11 11 9 17 -9 5 -15 2 -26 -6 -32
-11 -8 -10 -9 3 -4 16 5 32 -8 33 -26 0 -3 3 -9 7 -13 9 -9 4 17 -6 34 -7 11
-5 13 8 8 10 -4 20 -7 22 -7 3 0 3 -4 0 -8 -6 -9 60 -10 69 0 3 3 -7 4 -24 3
-21 -2 -28 1 -24 11 6 17 19 18 28 4 5 -8 12 -7 23 2 13 11 14 11 7 -1 -6 -11
-4 -13 8 -8 10 3 17 2 17 -3 0 -6 -4 -10 -10 -10 -5 0 -10 -5 -10 -11 0 -8 4
-9 13 0 8 6 17 7 22 3 4 -4 4 4 1 18 -4 14 -4 20 1 13 5 -6 22 -11 39 -11 17
1 37 -3 44 -7 9 -5 11 -4 6 3 -4 7 -2 12 3 12 6 0 11 -6 11 -13 0 -8 12 -13
30 -13 26 0 29 3 24 20 -3 13 -2 16 3 9 5 -6 22 -11 39 -11 17 1 37 -3 44 -7
9 -5 11 -4 6 3 -4 7 -2 12 3 12 6 0 11 -6 11 -14 0 -15 23 -16 37 -2 4 4 2 6
-6 4 -7 -2 -16 4 -18 12 -4 13 -3 13 6 0 6 -8 11 -11 11 -6 0 5 10 1 21 -10
22 -19 22 -19 11 2 -9 16 -8 21 3 21 8 0 12 -4 9 -8 -5 -9 47 -6 63 4 7 4 20
-4 32 -19 22 -28 28 -25 12 5 -7 13 -6 18 4 18 8 0 12 -4 9 -8 -5 -9 47 -6 63
4 7 4 20 -4 32 -19 22 -28 28 -25 12 5 -7 13 -6 18 4 18 8 0 12 -4 9 -8 -7
-12 39 -7 55 5 11 8 13 8 7 -2 -5 -9 -3 -13 5 -11 28 3 39 -2 40 -18 0 -15 2
-15 8 2 5 12 4 23 -3 28 -7 6 -6 7 4 4 8 -2 14 -13 12 -23 -2 -15 0 -14 11 5
9 16 17 20 21 12 4 -6 12 -9 17 -6 5 3 6 0 3 -8 -3 -8 2 -17 10 -20 10 -4 13
-1 9 8 -3 8 2 17 10 21 9 3 14 14 12 25 -2 11 0 17 5 14 12 -7 6 -35 -9 -45
-9 -5 -10 -10 -2 -14 6 -4 11 -2 11 4 0 7 7 10 15 6 12 -4 13 -2 5 13 -7 14
-6 21 3 24 9 4 9 6 -1 6 -7 1 -10 6 -7 11 4 6 3 10 -2 9 -19 -3 -31 2 -37 17
-5 14 -4 15 8 5 10 -9 15 -8 19 3 3 8 -1 13 -11 12 -9 0 -16 4 -15 11 3 12
-15 12 -36 -1 -10 -6 -12 -5 -7 2 4 7 2 12 -4 12 -6 0 -8 5 -4 12 4 7 3 8 -4
4 -6 -4 -9 -14 -6 -24 2 -9 -1 -7 -7 6 -7 12 -19 22 -28 22 -14 0 -14 -2 -1
-10 8 -5 10 -10 4 -10 -14 0 -41 30 -28 30 5 1 -7 9 -26 19 -19 11 -43 17 -52
16 -10 -2 -18 1 -18 7 0 5 6 8 13 5 8 -3 14 1 14 8 0 10 -7 11 -23 5 -16 -7
-26 -5 -36 7 -7 9 -8 14 -2 10 7 -4 14 1 17 13 4 16 2 17 -12 8 -13 -8 -25 -7
-47 4 -16 9 -37 14 -47 13 -9 -2 -15 1 -12 5 8 13 -35 39 -54 33 -14 -4 -14
-3 -1 6 13 9 13 11 0 11 -13 0 -13 1 0 10 8 5 10 10 4 10 -5 0 -15 -5 -21 -11
-8 -8 -15 -5 -26 11 -11 16 -16 18 -21 8 -3 -7 -4 -4 -1 8 6 25 -19 52 -31 33
-4 -7 -3 -9 4 -5 6 3 13 2 16 -3 3 -5 -1 -12 -10 -15 -22 -8 -26 -8 -19 4 3 5
-5 19 -19 31 -14 12 -23 25 -21 29 2 4 -13 6 -34 6 -30 -1 -37 2 -33 14 4 12
2 13 -9 3 -16 -16 -29 -17 -29 -2 0 5 5 7 10 4 16 -10 11 1 -7 16 -11 10 -14
10 -9 2 4 -7 3 -13 -2 -13 -15 0 -21 37 -8 51 9 10 8 11 -5 1 -12 -9 -19 -9
-29 1 -10 9 -11 9 -6 0 5 -8 1 -13 -9 -13 -10 0 -13 5 -9 12 5 8 2 9 -10 5 -9
-4 -14 -3 -11 2 3 5 1 13 -5 16 -8 5 -8 11 -1 19 6 7 9 15 6 17 -2 3 5 11 17
18 11 7 17 8 14 3 -3 -5 6 -9 20 -9 24 0 24 0 7 20 l-18 21 27 -17 c22 -14 26
-14 22 -2 -4 10 0 13 15 10 14 -3 18 0 14 12 -5 12 -7 12 -15 1 -8 -10 -9 -10
-5 2 2 9 15 14 35 14 19 -1 29 3 25 9 -4 7 0 8 12 3 14 -5 15 -4 7 7 -8 10 -6
13 9 14 12 1 17 -3 13 -9 -4 -6 -2 -8 4 -4 6 3 9 15 7 26 -2 11 1 23 7 26 6 4
8 3 5 -2 -3 -6 3 -15 13 -22 18 -11 19 -10 10 16 -8 22 -8 24 2 11 14 -17 42
-14 31 4 -4 7 0 8 12 3 14 -5 16 -4 6 7 -9 12 -7 14 12 12 32 -4 55 10 32 18
-9 4 -14 3 -10 -2 6 -11 -22 -8 -32 4 -4 4 -3 5 4 1 6 -3 14 -2 17 3 3 5 16 7
28 3 14 -3 19 -1 14 6 -5 9 -1 9 17 3 23 -9 25 -7 23 14 -2 13 1 29 6 37 7 10
8 8 4 -4 -7 -22 1 -23 20 -3 8 8 22 11 31 8 12 -5 14 -3 8 7 -5 8 -4 11 3 6 6
-4 10 -12 8 -19 -1 -7 -1 -9 1 -4 3 4 9 5 14 2 5 -4 6 2 2 12 -5 15 -3 16 8 6
16 -15 33 -17 24 -3 -3 6 1 7 10 3 13 -5 14 -7 3 -14 -10 -7 -8 -9 7 -10 11
-1 24 -1 28 0 5 1 6 -3 2 -9 -6 -9 8 -14 28 -11 5 1 6 -3 2 -9 -3 -6 -12 -7
-18 -3 -7 3 -3 -3 7 -15 18 -21 21 -21 43 -6 14 8 27 13 31 10 3 -3 0 -6 -6
-6 -7 0 -12 -8 -12 -17 0 -14 2 -15 9 -4 7 11 13 11 32 -3 13 -9 19 -16 13
-16 -5 0 -16 6 -23 13 -10 10 -11 9 -6 -5 4 -10 17 -18 31 -18 22 0 29 -10 25
-33 -1 -5 3 -6 9 -2 6 3 8 10 6 14 -3 3 4 7 14 7 15 0 17 -3 7 -15 -10 -12 -8
-13 16 -7 22 5 27 3 27 -11 0 -13 -2 -15 -9 -5 -6 11 -10 10 -19 -1 -9 -11 -8
-13 6 -12 9 0 23 4 30 8 8 6 10 3 5 -9 -5 -14 -3 -15 14 -5 16 8 24 7 32 -3 8
-9 7 -13 -4 -13 -8 0 -11 5 -8 10 4 6 1 7 -6 3 -7 -5 -9 -11 -6 -15 6 -6 10
-7 36 -10 5 0 7 -6 3 -13 -4 -6 -3 -8 4 -5 13 9 44 -2 37 -13 -3 -4 2 -13 9
-19 11 -9 16 -9 22 0 5 8 3 9 -6 4 -9 -6 -11 -4 -5 5 6 9 4 11 -5 5 -9 -6 -11
-4 -5 4 5 9 16 4 37 -18 31 -32 58 -40 58 -18 0 6 5 4 11 -6 6 -10 8 -21 5
-24 -3 -4 -6 -1 -6 6 0 7 -4 9 -10 6 -6 -4 -5 -11 3 -19 9 -10 14 -11 20 -2 4
7 10 8 15 1 11 -16 46 -19 36 -3 -6 10 -3 9 10 -1 9 -8 15 -20 12 -26 -2 -7 0
-18 6 -26 8 -11 9 -10 4 4 -3 9 -1 17 4 17 6 0 10 -10 11 -22 1 -22 1 -22 9 2
8 24 8 24 9 3 1 -26 11 -29 29 -11 7 7 12 8 12 2 0 -5 -5 -15 -11 -21 -8 -8
-7 -13 2 -18 7 -5 10 -4 6 2 -4 6 0 13 8 17 8 3 15 1 15 -5 0 -6 6 -7 13 -3 8
5 8 2 -2 -9 -16 -20 -8 -22 21 -6 11 6 18 7 15 1 -4 -5 1 -18 9 -28 9 -10 13
-12 9 -4 -4 8 1 6 11 -5 16 -20 16 -20 11 4 -4 17 -3 21 5 13 6 -6 11 -24 12
-40 1 -17 5 -28 9 -25 5 3 6 17 3 32 -3 14 -3 20 0 13 3 -6 10 -10 15 -6 5 3
8 0 7 -8 -2 -7 3 -12 10 -11 6 2 12 -2 12 -8 0 -6 -7 -9 -15 -5 -8 3 -15 1
-15 -4 0 -6 11 -10 25 -10 14 0 25 -5 25 -11 0 -5 5 -7 10 -4 8 5 7 12 -2 23
-12 15 -11 16 4 3 10 -7 15 -17 12 -22 -3 -5 7 -9 21 -9 15 0 24 -4 20 -10 -4
-6 -10 -8 -14 -6 -4 3 -8 -1 -8 -8 0 -17 25 -14 39 5 8 11 9 11 4 -3 -3 -11 0
-18 7 -18 8 0 6 -4 -3 -10 -9 -6 -10 -10 -3 -10 6 0 14 4 18 10 8 13 35 1 35
-16 0 -8 5 -14 11 -14 5 0 8 4 5 8 -2 4 -1 14 3 21 6 10 10 9 14 -3 3 -8 0
-22 -9 -30 -12 -13 -12 -15 5 -13 11 0 18 4 16 7 -2 4 2 7 10 7 11 0 12 -5 3
-21 -10 -19 -10 -20 5 -7 19 15 23 1 5 -17 -9 -9 -9 -12 0 -12 7 0 12 5 12 11
0 5 4 7 10 4 6 -4 7 1 4 12 -4 13 -3 14 3 5 6 -7 16 -12 24 -10 9 2 14 -5 14
-20 1 -24 37 -56 50 -44 5 4 5 -1 2 -11 -4 -11 -3 -16 4 -12 6 4 8 13 5 21 -3
7 0 16 6 20 7 5 8 2 3 -6 -6 -9 -2 -10 16 -5 23 7 23 6 5 -8 -19 -14 -19 -15
3 -26 20 -11 23 -10 28 9 5 20 6 20 19 -6 18 -34 18 -43 1 -20 -13 18 -14 18
-21 0 -4 -10 -4 -15 0 -11 4 4 15 0 25 -9 13 -12 19 -12 25 -3 5 8 3 10 -6 4
-9 -5 -11 -4 -6 4 10 16 29 3 22 -16 -4 -9 -2 -11 7 -6 22 13 35 11 53 -8 9
-10 21 -16 26 -13 6 4 8 -3 4 -17 -3 -13 -3 -18 0 -11 3 6 11 9 16 6 7 -4 8
-2 4 4 -4 7 -2 12 3 12 6 0 11 -6 11 -13 0 -7 9 -13 20 -14 11 -1 20 2 20 8 0
5 -5 8 -11 7 -6 -2 -14 4 -16 12 -4 12 -3 12 5 2 12 -17 22 -17 33 0 5 8 9 9
9 2 0 -7 7 -14 14 -17 11 -4 13 -1 10 11 -5 14 -4 15 5 2 6 -8 11 -12 11 -8 0
4 12 3 28 -3 41 -16 61 -19 67 -9 3 5 -3 7 -13 5 -10 -2 -25 1 -33 7 -11 8
-10 9 4 4 10 -3 17 0 17 7 0 8 4 6 10 -3 5 -8 10 -11 10 -6 0 5 10 1 21 -10
22 -19 22 -19 11 2 -9 16 -8 21 3 21 8 0 12 -4 9 -8 -5 -9 47 -6 63 4 7 4 20
-4 32 -19 22 -28 28 -25 12 5 -7 13 -6 18 4 18 8 0 12 -4 9 -8 -5 -9 47 -6 63
4 7 4 20 -4 32 -19 22 -28 28 -25 12 5 -7 13 -6 18 4 18 8 0 12 -4 9 -9 -4 -5
2 -8 12 -6 13 2 19 -3 18 -14 -1 -10 2 -15 7 -12 5 3 9 12 9 21 0 9 6 13 14
10 7 -3 19 0 26 6 10 9 11 9 6 0 -4 -7 -3 -13 3 -13 5 0 11 -6 14 -12 2 -7 3
-5 2 4 -2 10 2 21 7 25 7 3 8 1 4 -5 -4 -7 -2 -12 4 -12 6 0 8 -5 4 -12 -4 -7
-3 -8 5 -4 6 4 9 11 6 16 -3 5 -1 11 4 14 5 4 8 -5 7 -19 -2 -13 1 -22 5 -19
5 3 9 12 9 21 0 9 6 13 14 10 7 -3 19 0 26 6 10 9 11 9 6 0 -4 -7 -3 -13 3
-13 5 0 11 -6 14 -12 2 -7 3 -5 2 4 -2 10 2 21 7 25 7 3 8 1 4 -5 -4 -7 -2
-12 4 -12 6 0 8 -5 4 -12 -4 -7 -3 -8 5 -4 6 4 9 11 6 16 -3 5 -1 11 5 15 6 4
7 12 4 18 -4 7 -3 8 2 4 5 -5 10 -13 10 -18 1 -5 2 -12 3 -15 0 -4 7 -1 15 5
11 9 18 6 35 -15 22 -28 28 -25 12 5 -8 14 -5 17 13 17 12 0 23 -6 23 -13 0
-6 -4 -10 -9 -7 -4 3 -8 0 -8 -5 0 -14 13 -14 28 1 7 7 12 8 12 2 0 -6 7 -11
15 -11 8 0 12 4 9 9 -3 4 -1 8 3 8 5 0 9 9 10 20 1 11 -3 20 -9 20 -6 0 -8 3
-5 6 4 4 13 1 22 -6 10 -8 15 -9 15 -1 0 6 -5 11 -11 11 -8 0 -7 6 2 18 12 15
12 16 -1 6 -8 -7 -28 -12 -44 -12 -19 0 -24 3 -15 9 12 7 12 9 0 9 -8 0 -11 3
-8 6 4 4 14 1 22 -6 12 -10 18 -11 28 -1 9 10 8 11 -5 6 -13 -5 -16 -2 -13 12
2 12 -2 20 -10 20 -8 0 -12 -4 -9 -9 3 -4 0 -8 -5 -8 -6 0 -11 6 -11 13 0 8
-4 7 -10 -3 -8 -13 -10 -13 -10 2 0 9 -5 20 -12 24 -7 4 -8 3 -4 -4 4 -7 3
-12 -2 -12 -5 0 -14 11 -19 23 -9 19 -17 23 -41 19 -22 -3 -33 2 -45 18 -11
15 -16 18 -20 8 -4 -11 -6 -11 -6 0 -1 7 -6 10 -12 7 -15 -10 -39 27 -32 50 5
18 4 18 -15 -3 -17 -19 -21 -20 -26 -7 -3 9 -2 13 4 10 6 -3 10 -1 10 4 0 15
-13 14 -29 -1 -11 -10 -13 -10 -7 0 4 7 1 12 -8 12 -19 0 -20 11 -3 29 6 7 8
12 2 11 -23 -5 -36 1 -29 13 6 10 4 10 -7 0 -19 -18 -29 -16 -22 5 4 11 -1 9
-16 -8 -12 -14 -20 -20 -17 -14 6 13 -26 41 -45 39 -9 -2 -15 5 -15 17 0 18 1
18 13 2 7 -10 13 -13 13 -7 0 7 -5 15 -10 18 -6 4 -7 12 -4 18 4 7 -1 4 -11
-5 -14 -13 -22 -14 -41 -6 -13 6 -24 16 -24 22 0 6 -5 4 -10 -4 -8 -12 -10
-11 -10 8 0 13 -6 22 -15 22 -8 0 -15 5 -15 10 0 6 -5 10 -11 10 -5 0 -7 -4
-4 -10 3 -5 1 -10 -4 -10 -6 0 -11 10 -12 23 0 12 -3 16 -6 10 -2 -7 -9 -13
-14 -13 -6 0 -7 5 -4 10 3 6 -1 10 -10 10 -10 0 -13 -5 -9 -12 5 -9 2 -8 -9 1
-13 10 -15 17 -6 27 9 11 7 15 -5 20 -9 3 -13 11 -10 16 4 6 -6 2 -21 -8 l-28
-18 12 23 c12 21 11 22 -7 12 -11 -6 -22 -7 -26 -4 -3 3 -6 0 -6 -7 0 -7 -3
-10 -6 -7 -4 4 -2 12 4 20 8 9 8 17 0 27 -9 13 -9 13 -5 0 2 -8 -3 -22 -11
-30 -14 -13 -15 -12 -9 3 4 11 1 17 -8 17 -8 0 -15 7 -15 15 0 9 -6 12 -17 8
-11 -4 -14 -3 -9 5 4 7 1 12 -9 12 -10 0 -13 -5 -9 -12 5 -8 0 -7 -12 2 -35
27 -44 38 -44 54 0 19 -16 21 -26 4 -4 -7 -3 -8 4 -4 8 4 10 2 6 -8 -4 -11
-11 -8 -32 13 -15 16 -34 26 -42 23 -13 -5 -13 -3 -1 11 15 19 1 23 -17 5 -9
-9 -12 -8 -12 5 0 9 8 17 18 17 14 0 14 2 3 9 -10 7 -19 5 -26 -6 -8 -11 -14
-12 -19 -5 -4 6 -14 8 -23 5 -13 -5 -15 -2 -10 16 5 21 5 22 -12 7 -17 -16
-18 -15 -15 14 2 16 -1 30 -7 30 -6 0 -7 -4 -4 -10 10 -16 -21 -12 -35 5 -7 8
-16 13 -20 10 -4 -3 -10 2 -13 9 -3 8 -16 20 -29 26 -23 11 -23 11 1 -8 17
-13 20 -21 12 -27 -7 -4 -15 -4 -18 -1 -4 3 -1 6 5 6 6 0 -1 12 -15 26 -20 20
-28 23 -34 12 -6 -9 -9 -9 -9 -1 0 7 8 17 18 22 9 6 12 11 7 11 -6 0 -21 -7
-33 -16 -17 -12 -22 -12 -20 -2 2 7 -5 12 -14 12 -10 -1 -16 3 -15 9 1 6 -4
12 -10 13 -7 1 -18 2 -24 3 -5 0 -7 6 -3 12 4 8 9 7 15 -2 7 -11 9 -10 9 4 0
14 -6 16 -32 12 -27 -5 -30 -4 -18 10 7 8 10 18 6 22 -3 3 -6 2 -6 -4 0 -5
-10 -9 -22 -8 -13 1 -30 -3 -38 -9 -12 -9 -13 -8 -5 4 18 27 12 53 -14 57 -14
2 -28 -2 -33 -9 -5 -8 -7 -3 -4 14 4 25 3 26 -25 18 -22 -7 -29 -5 -29 6 0 24
-3 29 -29 42 -18 9 -27 10 -29 2 -3 -7 -10 -4 -19 7 -8 10 -12 13 -9 8 2 -6
-4 -11 -14 -11 -10 0 -18 3 -17 6 1 3 -4 15 -11 26 -6 12 -8 25 -4 29 4 5 1 5
-6 1 -7 -4 -20 -2 -28 5 -22 18 -46 20 -63 6 -8 -7 -12 -7 -9 -2 4 6 -7 26
-23 45 -28 34 -30 34 -44 16 -8 -11 -15 -14 -15 -7 0 7 -5 9 -10 6 -6 -4 -10
-3 -9 2 1 4 1 17 -1 28 l-1 20 -9 -20 -9 -20 0 20 c-1 11 -6 27 -12 35 -8 12
-9 9 -5 -10 3 -14 3 -19 0 -12 -3 6 -10 10 -15 7 -5 -4 -6 2 -2 12 6 16 5 17
-12 3 -11 -9 -16 -10 -11 -2 4 7 1 12 -8 12 -9 0 -16 -5 -16 -12 0 -6 -9 -3
-20 7 -11 10 -20 24 -20 32 0 7 -5 13 -11 13 -5 0 -7 6 -3 13 6 9 4 9 -8 -1
-13 -10 -18 -10 -24 -1 -4 7 -3 9 3 6 5 -3 10 1 10 9 0 10 -4 11 -11 4 -15
-15 -39 -12 -33 5 4 8 2 17 -4 20 -5 4 -6 12 -2 18 5 9 3 9 -8 0 -12 -10 -18
-10 -29 0 -12 10 -12 9 -1 -6 12 -15 12 -17 -3 -11 -9 3 -16 11 -16 16 0 6
-12 8 -27 5 -26 -5 -26 -4 -9 9 27 19 15 26 -17 9 -19 -10 -26 -10 -24 -2 1 7
-4 11 -11 9 -8 -1 -11 2 -8 7 3 5 -1 14 -9 21 -8 7 -13 16 -10 19 2 4 -2 8
-10 8 -8 0 -12 -4 -9 -9 10 -16 -9 -8 -22 10 -13 16 -14 16 -8 -3 7 -20 7 -20
-9 0 -16 21 -13 40 5 29 7 -4 8 -2 4 5 -4 6 -11 9 -16 6 -4 -3 -11 1 -13 7 -4
10 -6 10 -6 0z m-81 -72 c0 -5 -5 -10 -11 -10 -5 0 -7 5 -4 10 3 6 8 10 11 10
2 0 4 -4 4 -10z m335 -79 c3 -5 1 -12 -5 -16 -5 -3 -10 1 -10 9 0 18 6 21 15
7z m-528 -35 c0 -8 -6 -12 -15 -9 -11 5 -11 7 0 14 7 5 13 9 14 9 0 0 1 -6 1
-14z m-112 -66 c3 -5 1 -10 -4 -10 -6 0 -11 5 -11 10 0 6 2 10 4 10 3 0 8 -4
11 -10z m-95 -50 c0 -5 -5 -10 -11 -10 -5 0 -7 5 -4 10 3 6 8 10 11 10 2 0 4
-4 4 -10z m1025 -20 c3 -6 -1 -7 -9 -4 -18 7 -21 14 -7 14 6 0 13 -4 16 -10z
m75 -60 c0 -5 -5 -10 -11 -10 -5 0 -7 5 -4 10 3 6 8 10 11 10 2 0 4 -4 4 -10z
m41 -16 c23 -25 23 -26 2 -13 -13 7 -25 19 -27 26 -8 19 -2 16 25 -13z m149
-98 c0 -6 -5 -3 -11 7 -9 15 -13 16 -27 5 -15 -11 -15 -11 -5 3 7 9 9 20 5 25
-4 5 3 0 16 -10 12 -11 22 -24 22 -30z m115 -45 c-9 -8 -36 -10 -30 -2 2 4 11
8 20 8 8 0 13 -3 10 -6z m-2061 -129 c3 -5 -1 -9 -9 -9 -8 0 -12 4 -9 9 3 4 7
8 9 8 2 0 6 -4 9 -8z m1286 -26 c0 -2 -6 -9 -14 -15 -11 -9 -16 -9 -22 0 -4 7
-3 9 4 5 6 -3 13 -2 17 4 6 10 15 14 15 6z m1115 -66 c-3 -5 -12 -10 -18 -10
-7 0 -6 4 3 10 19 12 23 12 15 0z m-737 -157 c-8 -10 -14 -10 -24 -2 -18 15
-18 15 11 15 19 0 22 -3 13 -13z m-964 -71 c3 -5 -1 -9 -9 -9 -8 0 -12 4 -9 9
3 4 7 8 9 8 2 0 6 -4 9 -8z m2145 -13 c-15 -9 -32 -2 -24 11 3 5 13 6 21 3 12
-4 13 -8 3 -14z m-1989 -84 c11 -13 10 -15 -4 -9 -9 3 -16 11 -16 16 0 6 -6 8
-13 5 -8 -3 -14 1 -14 8 0 16 26 5 47 -20z m2107 9 c-3 -3 -12 -4 -19 -1 -8 3
-5 6 6 6 11 1 17 -2 13 -5z m-3717 -47 c0 -4 -6 -2 -14 5 -8 7 -12 17 -9 22 5
8 23 -12 23 -27z m-40 -41 c0 -2 -7 -7 -16 -10 -8 -3 -12 -2 -9 4 6 10 25 14
25 6z m3981 -30 c15 9 10 -3 -8 -17 -11 -10 -14 -10 -9 -1 4 7 2 12 -4 12 -6
0 -8 5 -4 12 6 9 9 9 12 0 2 -7 8 -10 13 -6z m-4071 -2 c0 -8 -19 -13 -24 -6
-3 5 1 9 9 9 8 0 15 -2 15 -3z m1104 -126 c-5 -8 -1 -9 10 -5 11 4 15 3 11 -4
-10 -14 -28 -6 -31 14 -1 9 2 15 7 11 5 -3 6 -10 3 -16z m2147 -18 c5 0 9 -5
9 -10 0 -6 -7 -6 -19 2 -12 7 -17 18 -13 27 6 14 7 14 10 -1 2 -10 8 -18 13
-18z m1064 -10 c2 -12 1 -20 -2 -16 -4 4 -8 16 -10 28 -2 12 -1 19 2 16 3 -3
8 -16 10 -28z m-3121 -21 c23 3 30 0 16 -9 -16 -10 -40 4 -40 24 0 7 4 6 9 -2
4 -8 11 -13 15 -13z m2131 -9 c3 -6 -1 -7 -9 -4 -18 7 -21 14 -7 14 6 0 13 -4
16 -10z m-1065 -30 c0 -5 -2 -10 -4 -10 -3 0 -8 5 -11 10 -3 6 -1 10 4 10 6 0
11 -4 11 -10z m1211 -27 c13 -16 12 -17 -3 -4 -17 13 -22 21 -14 21 2 0 10 -8
17 -17z m-3714 -10 c-4 -3 -1 -13 6 -22 11 -14 10 -14 -5 -2 -16 12 -16 31 -1
31 4 0 3 -3 0 -7z m318 -3 c3 -5 1 -10 -4 -10 -6 0 -11 5 -11 10 0 6 2 10 4
10 3 0 8 -4 11 -10z m240 0 c3 -5 1 -10 -4 -10 -6 0 -11 5 -11 10 0 6 2 10 4
10 3 0 8 -4 11 -10z m1030 1 c3 -5 2 -12 -3 -15 -5 -3 -9 1 -9 9 0 17 3 19 12
6z m39 1 c3 -5 -1 -9 -9 -9 -8 0 -12 4 -9 9 3 4 7 8 9 8 2 0 6 -4 9 -8z m611
-2 c3 -5 1 -10 -4 -10 -6 0 -11 5 -11 10 0 6 2 10 4 10 3 0 8 -4 11 -10z
m1920 0 c3 -5 1 -10 -4 -10 -6 0 -11 5 -11 10 0 6 2 10 4 10 3 0 8 -4 11 -10z
m-4115 -10 c0 -5 -5 -10 -11 -10 -5 0 -7 5 -4 10 3 6 8 10 11 10 2 0 4 -4 4
-10z m1831 -14 c5 3 9 0 9 -6 0 -15 -23 -7 -26 8 -1 7 0 8 3 2 2 -5 9 -8 14
-4z m2789 4 c0 -5 -2 -10 -4 -10 -3 0 -8 5 -11 10 -3 6 -1 10 4 10 6 0 11 -4
11 -10z"/>
<path d="M2423 4223 c1 -15 5 -19 13 -13 6 6 15 6 19 2 5 -4 5 -1 1 6 -4 7
-11 10 -16 7 -4 -3 -10 1 -13 7 -3 7 -4 3 -4 -9z"/>
<path d="M2571 4199 c0 -9 8 -24 19 -34 11 -10 20 -13 20 -7 0 7 -6 12 -12 12
-9 0 -8 4 2 11 13 9 13 10 -2 5 -10 -3 -18 1 -21 12 -4 14 -5 15 -6 1z"/>
<path d="M2310 4186 c0 -2 7 -7 16 -10 8 -3 12 -2 9 4 -6 10 -25 14 -25 6z"/>
<path d="M2276 4147 c3 -10 9 -15 12 -12 3 3 0 11 -7 18 -10 9 -11 8 -5 -6z"/>
<path d="M2817 4064 c-7 -7 13 -54 24 -54 4 0 11 5 14 10 4 6 1 9 -7 8 -7 -2
-12 3 -10 10 1 6 -3 12 -9 12 -5 0 -7 5 -4 10 7 11 2 14 -8 4z"/>
<path d="M1996 3991 c-4 -5 -2 -12 3 -15 5 -4 12 -2 15 3 4 5 2 12 -3 15 -5 4
-12 2 -15 -3z"/>
<path d="M2966 3957 c3 -10 9 -15 12 -12 3 3 0 11 -7 18 -10 9 -11 8 -5 -6z"/>
<path d="M3041 3924 c-1 -6 5 -16 12 -22 10 -8 13 -6 14 11 2 15 0 18 -6 8 -7
-11 -9 -11 -14 0 -3 8 -6 9 -6 3z"/>
<path d="M3173 3850 c-1 -11 2 -22 6 -24 4 -3 7 4 6 14 -2 27 -10 33 -12 10z"/>
<path d="M1753 3835 c0 -6 6 -12 12 -12 6 0 12 6 12 12 0 6 -6 12 -12 12 -6 0
-12 -6 -12 -12z"/>
<path d="M1611 3763 c-1 -18 13 -23 29 -11 12 8 12 9 -2 5 -9 -3 -19 -1 -22 6
-3 9 -5 9 -5 0z"/>
<path d="M3526 3637 c3 -10 9 -15 12 -12 3 3 0 11 -7 18 -10 9 -11 8 -5 -6z"/>
<path d="M1395 3630 c-4 -6 -11 -7 -17 -4 -7 4 -8 2 -4 -5 6 -9 11 -9 22 0 14
11 18 19 10 19 -3 0 -8 -5 -11 -10z"/>
<path d="M3570 3621 c0 -7 -5 -9 -12 -5 -7 5 -8 3 -3 -5 5 -9 10 -10 18 -2 6
6 8 14 4 18 -4 3 -7 1 -7 -6z"/>
<path d="M2417 3593 c-4 -3 -7 -11 -7 -17 0 -6 5 -5 12 2 6 6 9 14 7 17 -3 3
-9 2 -12 -2z"/>
<path d="M2390 3560 c0 -5 5 -10 11 -10 5 0 7 5 4 10 -3 6 -8 10 -11 10 -2 0
-4 -4 -4 -10z"/>
<path d="M2536 3557 c3 -10 9 -15 12 -12 3 3 0 11 -7 18 -10 9 -11 8 -5 -6z"/>
<path d="M3700 3541 c0 -6 4 -13 10 -16 6 -3 7 1 4 9 -7 18 -14 21 -14 7z"/>
<path d="M1076 3482 c-3 -5 1 -9 9 -9 8 0 12 4 9 9 -3 4 -7 8 -9 8 -2 0 -6 -4
-9 -8z"/>
<path d="M3784 3478 c-4 -7 -4 -10 1 -6 4 4 14 3 22 -4 11 -8 12 -7 7 6 -7 19
-20 21 -30 4z"/>
<path d="M3890 3426 c0 -2 7 -9 15 -16 13 -11 14 -10 9 4 -5 14 -24 23 -24 12z"/>
<path d="M982 3403 c1 -10 -2 -25 -7 -33 -7 -13 -6 -13 7 -2 9 7 14 21 11 32
-7 25 -15 26 -11 3z"/>
<path d="M3987 3365 c3 -8 9 -12 14 -9 12 7 11 11 -5 17 -10 4 -13 1 -9 -8z"/>
<path d="M1982 3330 c-9 -15 -9 -21 1 -26 6 -4 9 -4 5 1 -4 4 -3 14 4 22 6 7
9 15 7 18 -3 2 -10 -4 -17 -15z"/>
<path d="M810 3295 c-11 -13 -10 -14 4 -9 9 3 16 10 16 15 0 13 -6 11 -20 -6z"/>
<path d="M3080 3260 c-9 -6 -10 -10 -3 -10 6 0 15 5 18 10 8 12 4 12 -15 0z"/>
<path d="M711 3233 c-7 -8 -11 -16 -8 -19 2 -2 10 2 17 11 17 20 9 27 -9 8z"/>
<path d="M4360 3161 c0 -6 4 -13 10 -16 6 -3 7 1 4 9 -7 18 -14 21 -14 7z"/>
<path d="M2275 3140 c3 -5 8 -10 11 -10 2 0 4 5 4 10 0 6 -5 10 -11 10 -5 0
-7 -4 -4 -10z"/>
<path d="M4440 3105 c0 -2 6 -8 13 -14 10 -8 14 -7 14 2 0 8 -6 14 -14 14 -7
0 -13 -1 -13 -2z"/>
<path d="M386 3082 c-3 -5 1 -9 9 -9 8 0 12 4 9 9 -3 4 -7 8 -9 8 -2 0 -6 -4
-9 -8z"/>
<path d="M2367 3067 c31 -25 50 -29 60 -15 3 6 1 8 -5 4 -5 -3 -13 0 -15 6 -4
10 -6 10 -6 0 -1 -10 -4 -10 -15 0 -8 8 -10 15 -4 19 6 4 -1 7 -16 7 l-26 0
27 -21z"/>
<path d="M2499 2993 c-13 -16 -12 -17 4 -4 9 7 17 15 17 17 0 8 -8 3 -21 -13z"/>
<path d="M4626 3001 c-3 -5 1 -14 9 -21 10 -9 15 -9 15 -1 0 6 -5 11 -11 11
-5 0 -7 5 -4 10 3 6 4 10 1 10 -3 0 -7 -4 -10 -9z"/>
<path d="M2575 2959 c4 -5 20 -16 37 -25 16 -9 27 -11 24 -5 -4 5 -20 16 -36
25 -17 8 -28 10 -25 5z"/>
<path d="M4690 2962 c0 -5 7 -13 16 -16 22 -8 24 -8 24 6 0 6 -3 8 -7 5 -3 -4
-12 -2 -20 4 -8 7 -13 8 -13 1z"/>
<path d="M1490 2950 c0 -5 5 -10 11 -10 5 0 7 5 4 10 -3 6 -8 10 -11 10 -2 0
-4 -4 -4 -10z"/>
<path d="M3639 2933 c-13 -16 -12 -17 4 -4 16 13 21 21 13 21 -2 0 -10 -8 -17
-17z"/>
<path d="M1045 2810 c-3 -5 -1 -10 4 -10 6 0 11 5 11 10 0 6 -2 10 -4 10 -3 0
-8 -4 -11 -10z"/>
<path d="M3875 2800 c-4 -6 -4 -14 -1 -17 3 -4 6 -1 6 7 0 10 3 10 15 0 13
-10 13 -15 3 -21 -7 -4 -10 -11 -7 -14 4 -3 11 1 18 8 8 11 7 18 -8 31 -13 12
-21 14 -26 6z"/>
<path d="M425 2769 c-4 -5 -4 -13 -1 -16 3 -4 6 0 6 8 0 11 2 11 10 -1 6 -9
10 -10 10 -3 0 17 -17 25 -25 12z"/>
<path d="M545 2769 c-4 -5 -4 -13 -1 -16 3 -4 6 0 6 8 0 11 2 11 10 -1 6 -9
10 -10 10 -3 0 17 -17 25 -25 12z"/>
<path d="M665 2769 c-4 -5 -4 -13 -1 -16 3 -4 6 0 6 8 0 11 2 11 10 -1 6 -9
10 -10 10 -3 0 17 -17 25 -25 12z"/>
<path d="M785 2769 c-4 -5 -4 -13 -1 -16 3 -4 6 0 6 8 0 11 2 11 10 -1 6 -9
10 -10 10 -3 0 17 -17 25 -25 12z"/>
<path d="M2345 2769 c-4 -5 -4 -13 -1 -16 3 -4 6 0 6 8 0 11 2 11 10 -1 6 -9
10 -10 10 -3 0 17 -17 25 -25 12z"/>
<path d="M2465 2769 c-4 -5 -4 -13 -1 -16 3 -4 6 0 6 8 0 11 2 11 10 -1 6 -9
10 -10 10 -3 0 17 -17 25 -25 12z"/>
<path d="M4265 2769 c-4 -5 -4 -13 -1 -16 3 -4 6 0 6 8 0 11 2 11 10 -1 6 -9
10 -10 10 -3 0 17 -17 25 -25 12z"/>
<path d="M4385 2769 c-4 -5 -4 -13 -1 -16 3 -4 6 0 6 8 0 11 2 11 10 -1 6 -9
10 -10 10 -3 0 17 -17 25 -25 12z"/>
<path d="M4714 2760 c0 -13 4 -16 10 -10 7 7 7 13 0 20 -6 6 -10 3 -10 -10z"/>
<path d="M4747 2773 c-11 -11 -8 -20 7 -20 8 0 12 6 9 14 -6 15 -7 15 -16 6z"/>
<path d="M310 2759 c0 -5 5 -7 10 -4 6 3 10 8 10 11 0 2 -4 4 -10 4 -5 0 -10
-5 -10 -11z"/>
<path d="M375 2760 c-2 -3 5 -7 16 -7 10 -1 19 2 19 6 0 9 -29 10 -35 1z"/>
<path d="M516 2753 c-6 -14 -5 -15 5 -6 7 7 10 15 7 18 -3 3 -9 -2 -12 -12z"/>
<path d="M636 2753 c-6 -14 -5 -15 5 -6 7 7 10 15 7 18 -3 3 -9 -2 -12 -12z"/>
<path d="M756 2753 c-6 -14 -5 -15 5 -6 7 7 10 15 7 18 -3 3 -9 -2 -12 -12z"/>
<path d="M2295 2760 c-2 -3 5 -7 16 -7 10 -1 19 2 19 6 0 9 -29 10 -35 1z"/>
<path d="M2436 2753 c-6 -14 -5 -15 5 -6 7 7 10 15 7 18 -3 3 -9 -2 -12 -12z"/>
<path d="M2559 2753 c-12 -16 -12 -17 2 -6 9 7 20 9 24 5 5 -4 5 -1 1 6 -9 16
-11 15 -27 -5z"/>
<path d="M4215 2760 c-2 -3 5 -7 16 -7 10 -1 19 2 19 6 0 9 -29 10 -35 1z"/>
<path d="M4356 2753 c-6 -14 -5 -15 5 -6 7 7 10 15 7 18 -3 3 -9 -2 -12 -12z"/>
<path d="M4890 2759 c0 -5 5 -7 10 -4 6 3 10 8 10 11 0 2 -4 4 -10 4 -5 0 -10
-5 -10 -11z"/>
<path d="M315 2233 c3 -3 0 -12 -7 -20 -6 -7 -8 -16 -4 -20 3 -3 6 -1 6 7 0
10 4 10 18 -1 16 -13 16 -13 2 5 -8 11 -13 21 -12 23 2 3 1 7 -2 9 -3 2 -4 1
-1 -3z"/>
<path d="M2875 2233 c3 -3 0 -12 -7 -20 -6 -7 -8 -16 -4 -20 3 -3 6 -1 6 7 0
10 4 10 18 -1 16 -13 16 -13 2 5 -8 11 -13 21 -12 23 2 3 1 7 -2 9 -3 2 -4 1
-1 -3z"/>
<path d="M4791 2235 c2 -5 -2 -20 -9 -32 -9 -16 -9 -22 0 -25 6 -2 -12 -4 -40
-4 -39 0 -51 4 -49 14 1 8 -9 21 -23 29 -22 14 -23 14 -7 0 10 -8 14 -18 9
-21 -5 -3 -12 -2 -16 1 -10 10 -66 13 -66 3 0 -4 13 -6 30 -5 16 1 27 -1 25
-6 -3 -4 -15 -6 -26 -4 -16 3 -19 0 -15 -13 5 -15 4 -15 -7 -2 -18 23 -41 25
-33 3 4 -10 -4 -5 -18 12 -13 16 -22 33 -19 37 2 5 0 8 -6 8 -5 0 -9 -9 -8
-19 0 -11 4 -18 8 -15 15 9 18 -14 3 -27 -12 -10 -15 -10 -12 0 2 8 -5 15 -14
16 -10 2 -18 -2 -18 -8 0 -7 -4 -5 -10 3 -5 8 -7 24 -5 35 3 11 2 14 -1 7 -3
-6 -10 -9 -16 -6 -6 4 -6 -1 1 -14 8 -16 7 -23 -7 -33 -15 -13 -16 -12 -4 3 9
11 10 18 2 23 -5 3 -10 1 -10 -5 0 -8 -5 -8 -17 -1 -13 7 -23 5 -37 -7 -11 -9
-16 -12 -13 -5 5 7 1 12 -10 12 -48 2 -53 4 -48 25 3 12 2 15 -1 8 -3 -6 -10
-9 -16 -6 -6 4 -6 -1 1 -14 8 -16 7 -23 -7 -33 -15 -13 -16 -12 -4 3 9 11 10
18 2 23 -5 3 -10 1 -10 -5 0 -8 -5 -8 -17 -1 -13 7 -23 5 -37 -7 -11 -9 -16
-12 -13 -6 4 7 -3 12 -18 12 -14 0 -22 -5 -18 -11 3 -6 1 -7 -6 -3 -6 4 -8 13
-4 19 4 7 0 6 -10 -2 -9 -7 -17 -10 -17 -5 0 5 -5 2 -10 -6 -8 -12 -10 -12
-10 -1 0 11 -5 9 -22 -5 -14 -12 -18 -13 -10 -3 6 9 8 20 4 24 -4 5 -1 5 6 1
6 -4 12 -2 12 3 0 16 -20 13 -26 -3 -3 -9 -12 -12 -21 -9 -10 4 -14 2 -9 -5 3
-6 2 -14 -4 -17 -6 -4 -10 -3 -9 2 3 20 -2 27 -11 13 -8 -12 -10 -12 -10 -1 0
11 -3 11 -15 1 -17 -14 -31 -8 -21 9 4 5 15 8 26 6 11 -2 20 1 20 6 0 6 -6 9
-12 6 -7 -2 -21 0 -30 5 -13 6 -16 5 -12 -5 3 -8 -3 -20 -12 -28 -15 -12 -16
-12 -9 10 6 21 5 22 -8 10 -8 -8 -13 -17 -10 -21 2 -5 -8 -8 -22 -8 -14 0 -24
-4 -20 -9 3 -5 0 -13 -6 -17 -8 -4 -9 -3 -5 4 4 7 3 12 -3 12 -6 0 -8 8 -4 18
5 14 3 13 -10 -3 -9 -11 -17 -16 -17 -12 0 5 -7 2 -15 -7 -9 -8 -12 -22 -8
-32 5 -13 3 -15 -7 -9 -10 6 -12 4 -8 -7 4 -10 0 -15 -10 -15 -57 0 -64 -3
-59 -23 3 -11 1 -18 -3 -15 -5 3 -13 -3 -19 -12 -6 -10 -11 -12 -11 -5 0 6 -5
12 -11 12 -5 0 -8 -4 -4 -9 3 -5 0 -13 -6 -17 -8 -4 -9 -3 -5 4 4 7 3 12 -3
12 -5 0 -14 -7 -19 -16 -5 -9 -12 -16 -15 -15 -14 1 -42 -13 -49 -25 -5 -7
-17 -10 -30 -6 -16 4 -19 2 -13 -9 7 -12 6 -12 -7 -1 -11 9 -18 10 -23 2 -3
-6 -11 -8 -16 -4 -6 4 -6 11 2 20 16 19 4 18 -15 -2 -13 -12 -16 -12 -16 -2 0
8 6 20 13 27 10 10 9 11 -5 6 -9 -4 -19 -14 -21 -23 -3 -10 -5 -5 -6 11 -1 17
-7 27 -17 27 -8 0 -12 -4 -9 -10 3 -5 1 -10 -5 -10 -6 0 -8 11 -4 28 l6 27
-17 -23 c-17 -23 -35 -21 -35 4 0 9 -7 22 -15 31 -8 8 -13 18 -11 22 3 4 -1 8
-9 8 -11 0 -10 -5 2 -24 10 -14 11 -23 4 -23 -6 0 -11 7 -11 16 0 10 -6 14
-14 11 -19 -8 -28 3 -15 19 8 9 5 11 -10 7 -12 -3 -18 -10 -14 -16 3 -6 1 -7
-5 -3 -6 4 -8 14 -5 24 6 15 5 16 -12 2 -14 -11 -17 -11 -11 -1 7 10 3 12 -15
6 -19 -5 -21 -4 -9 4 10 7 11 11 3 11 -8 0 -10 7 -6 18 6 15 5 16 -12 2 -17
-14 -18 -13 -12 2 4 13 2 15 -10 11 -12 -5 -14 -3 -8 7 5 9 4 11 -4 6 -9 -6
-9 -11 0 -22 10 -12 9 -13 -5 -8 -9 3 -16 12 -16 19 0 7 -7 16 -16 19 -21 8
-24 8 -24 -5 0 -5 4 -8 9 -4 5 3 12 1 15 -4 11 -16 -11 -22 -24 -6 -7 8 -19
15 -27 15 -10 0 -13 6 -9 16 5 14 4 15 -8 5 -10 -9 -16 -9 -21 -1 -4 7 -11 8
-18 2 -7 -5 -22 -8 -34 -6 -13 2 -23 0 -23 -5 0 -5 13 -7 30 -6 20 2 27 -1 23
-9 -4 -6 1 -5 10 3 12 9 17 10 17 2 0 -7 4 -10 8 -7 4 2 13 1 20 -3 7 -4 -6
-7 -28 -7 -22 0 -40 4 -40 9 0 5 -7 4 -16 -4 -9 -7 -18 -9 -22 -3 -4 5 -17 10
-30 10 -18 1 -22 -2 -17 -15 5 -12 3 -13 -6 -4 -13 13 -3 36 13 27 6 -4 5 2
-2 15 -9 18 -30 21 -30 5 0 -3 5 -2 10 1 15 9 12 -11 -2 -21 -19 -14 -48 -11
-59 6 -8 12 -9 11 -7 -5 2 -11 8 -23 13 -27 6 -5 6 -8 -2 -8 -6 0 -14 4 -18 9
-3 5 -19 8 -35 6 -24 -3 -30 0 -28 11 2 9 -8 23 -22 31 -22 14 -23 14 -7 0 10
-8 14 -18 9 -21 -5 -3 -12 -2 -16 1 -10 10 -66 13 -66 3 0 -4 13 -6 30 -5 16
1 27 -1 25 -6 -3 -4 -15 -6 -26 -4 -16 3 -19 0 -15 -13 5 -15 4 -15 -7 -2 -18
23 -41 25 -33 3 4 -10 -4 -5 -18 12 -13 16 -22 33 -19 37 2 5 0 8 -6 8 -5 0
-9 -9 -8 -19 0 -11 4 -18 8 -15 15 9 18 -14 3 -27 -12 -10 -15 -10 -12 1 4 17
-63 21 -74 5 -5 -6 -8 -5 -8 4 0 11 -5 9 -21 -5 -14 -13 -19 -14 -17 -4 2 7
-5 16 -16 18 -11 2 -16 0 -12 -6 3 -6 2 -14 -4 -17 -6 -4 -9 -1 -8 6 4 16 -22
19 -41 5 -10 -8 -15 -7 -19 2 -3 10 -7 10 -19 0 -12 -10 -17 -9 -25 5 -7 13
-13 15 -28 7 -13 -7 -21 -7 -25 0 -4 6 -11 8 -16 5 -5 -4 -9 -1 -9 5 0 6 -4 9
-9 6 -5 -4 -11 -1 -13 6 -3 8 -6 7 -10 -3 -4 -9 0 -16 8 -17 8 -1 21 -3 29 -4
8 -1 15 -5 15 -10 0 -10 -11 -10 -29 1 -9 6 -21 5 -33 -2 -15 -10 -21 -9 -28
3 -7 10 -10 11 -11 3 -1 -7 -2 -19 -3 -25 -1 -7 -8 -12 -16 -10 -8 2 -11 0 -7
-5 5 -4 14 -8 20 -8 7 0 11 -11 11 -23 -1 -17 2 -20 9 -13 15 15 30 14 21 -1
-5 -7 -3 -8 7 -2 25 15 38 13 45 -8 5 -17 8 -18 16 -7 7 10 8 8 5 -9 -5 -20
-3 -21 11 -10 14 11 15 10 9 -5 -4 -11 -3 -16 3 -12 6 3 10 1 10 -6 0 -8 5 -7
17 2 11 10 14 10 9 2 -4 -8 -2 -13 4 -13 6 0 8 -5 4 -12 -4 -7 -3 -8 5 -4 6 4
9 11 6 16 -3 5 0 12 6 16 8 4 9 3 5 -4 -4 -7 4 -23 17 -36 14 -14 23 -27 20
-29 -2 -3 4 -4 14 -3 10 0 17 -5 15 -12 -1 -8 2 -11 9 -7 7 5 3 16 -13 33 -13
15 -16 21 -7 14 9 -6 20 -8 24 -4 5 4 6 2 2 -3 -3 -6 1 -19 9 -30 12 -16 14
-17 14 -2 0 9 4 17 9 17 5 0 8 -8 7 -17 -1 -13 6 -17 24 -16 14 1 20 -1 13 -3
-17 -7 21 -47 47 -49 10 -1 17 1 15 5 -2 3 4 6 14 6 10 0 18 -6 18 -13 0 -7
-4 -10 -9 -7 -4 3 -5 -2 -2 -11 5 -13 9 -13 22 -3 14 12 14 10 2 -12 -12 -22
-12 -24 2 -12 13 10 16 9 21 -10 6 -22 6 -22 28 -2 12 10 19 14 16 8 -4 -7 0
-15 9 -18 8 -3 12 -2 9 4 -3 6 -1 10 4 10 17 0 13 -21 -6 -37 -10 -8 -13 -12
-6 -9 16 8 44 -4 37 -16 -4 -6 6 -2 22 8 23 15 26 15 16 3 -10 -14 -9 -19 5
-30 11 -9 14 -10 9 -1 -4 7 -2 12 4 12 6 0 8 5 4 11 -5 8 -1 8 13 0 11 -6 23
-8 27 -6 3 3 4 2 1 -2 -8 -10 16 -33 28 -26 6 3 7 1 3 -6 -6 -9 -11 -9 -21 -1
-9 8 -14 7 -18 -4 -4 -9 -1 -18 5 -22 6 -4 8 -3 5 3 -4 7 3 10 18 9 15 0 23
-6 21 -13 -3 -7 1 -10 9 -6 8 3 12 10 8 16 -3 6 -1 7 6 3 6 -4 8 -12 5 -18 -5
-7 -1 -9 9 -5 10 4 17 1 17 -6 0 -9 3 -8 9 1 7 11 9 10 14 -3 5 -10 3 -14 -4
-9 -7 4 -10 1 -7 -7 3 -8 1 -22 -3 -31 -7 -12 -4 -20 8 -28 15 -9 14 -10 -6
-4 -18 5 -22 3 -15 -7 6 -11 5 -12 -8 -2 -15 13 -28 8 -28 -11 0 -6 5 -4 10 4
5 8 10 11 10 5 0 -5 -4 -16 -9 -23 -7 -11 -9 -11 -14 2 -4 9 -12 16 -19 15
-10 0 -10 -2 0 -6 9 -3 3 -13 -18 -28 -31 -23 -67 -24 -53 -2 4 6 1 7 -6 2 -9
-5 -10 -10 -2 -18 18 -18 13 -23 -27 -22 -34 0 -38 -2 -36 -22 2 -19 -1 -21
-16 -13 -18 10 -30 4 -30 -14 0 -6 5 -4 10 4 5 8 10 10 10 5 0 -13 -20 -35
-32 -35 -4 0 -8 5 -8 11 0 5 4 7 10 4 5 -3 7 0 4 9 -5 12 -9 13 -19 3 -9 -9
-10 -17 -2 -32 10 -20 10 -20 -11 -1 -20 17 -22 17 -28 2 -3 -9 -15 -16 -25
-16 -10 0 -19 -4 -19 -10 0 -5 6 -7 14 -4 8 3 17 1 21 -5 3 -7 0 -8 -9 -5 -10
4 -16 1 -16 -7 0 -8 -6 -5 -16 7 -8 10 -12 13 -8 5 5 -11 2 -13 -14 -9 -17 5
-20 2 -16 -19 4 -21 2 -22 -10 -11 -7 7 -11 17 -8 22 3 5 0 6 -6 2 -9 -5 -9
-13 0 -29 10 -19 9 -20 -3 -10 -9 7 -20 8 -28 3 -17 -10 -52 10 -43 25 3 5 -2
4 -11 -4 -15 -12 -17 -11 -17 2 0 10 -6 14 -14 11 -15 -6 -73 45 -68 60 2 5
-3 4 -12 -3 -11 -9 -16 -9 -22 0 -5 8 -3 9 6 4 9 -5 11 -4 6 4 -4 6 -12 9 -17
5 -5 -3 -7 -10 -4 -15 4 -5 1 -9 -4 -9 -6 0 -11 6 -11 13 0 8 -7 14 -15 15 -8
1 -22 3 -30 4 -8 1 -12 5 -9 10 3 5 11 5 17 2 7 -4 1 4 -13 17 -26 26 -41 30
-21 5 9 -11 9 -16 0 -22 -8 -4 -9 -3 -5 5 4 6 0 14 -8 17 -9 3 -14 9 -12 13 3
4 -10 8 -27 9 -18 2 -34 7 -35 12 -2 6 -8 8 -13 4 -5 -3 -9 -2 -8 3 3 20 -2
34 -11 28 -5 -3 -10 2 -11 12 0 16 -1 16 -9 -2 -6 -14 -9 -16 -10 -5 -2 8 -2
18 -1 23 0 4 -4 7 -10 7 -6 0 -9 -7 -6 -15 4 -8 1 -17 -5 -21 -7 -4 -8 -3 -4
4 4 7 2 12 -4 12 -7 0 -10 6 -7 13 3 8 1 20 -5 28 -8 11 -9 10 -4 -3 3 -10 1
-18 -3 -18 -11 0 -23 29 -17 39 3 4 -13 6 -35 5 -38 -1 -52 9 -26 19 9 4 9 6
0 6 -6 1 -14 -3 -18 -9 -3 -5 -15 0 -26 11 -11 11 -24 17 -29 14 -5 -3 -15 3
-22 15 -7 11 -16 20 -21 20 -4 0 -5 -5 -1 -12 4 -7 3 -8 -4 -4 -7 4 -12 14
-12 23 0 13 -2 13 -17 2 -15 -13 -15 -12 -5 8 17 31 15 40 -4 17 -14 -18 -15
-18 -9 6 5 19 4 22 -4 10 -9 -12 -13 -13 -20 -2 -4 8 -11 13 -15 13 -19 -3
-26 0 -26 10 0 5 5 7 12 3 7 -5 8 -3 3 6 -6 10 -12 7 -26 -11 -10 -13 -21 -20
-25 -16 -4 4 -2 7 4 7 17 0 15 29 -3 46 -8 9 -15 12 -15 7 0 -5 5 -14 11 -20
8 -8 8 -13 0 -17 -6 -4 -12 -5 -12 -2 -1 3 -3 11 -4 16 -1 6 -3 15 -4 20 0 6
-6 10 -12 10 -5 0 -7 -6 -3 -12 6 -10 4 -10 -8 0 -13 10 -17 10 -21 0 -4 -10
-6 -10 -6 0 -1 6 -8 12 -16 12 -8 0 -15 5 -15 10 0 7 6 7 20 0 11 -6 20 -7 20
-2 0 6 -9 12 -20 15 -11 3 -19 11 -18 17 2 7 -3 15 -9 17 -7 3 -13 0 -13 -7 0
-6 4 -9 9 -6 11 7 8 -20 -3 -31 -4 -4 -6 -3 -4 3 2 7 -8 21 -21 33 -14 12 -18
21 -11 21 7 0 11 3 7 6 -12 12 -28 -7 -18 -20 8 -9 7 -13 -4 -13 -8 0 -13 3
-10 5 3 3 -2 16 -10 28 -10 16 -11 24 -3 26 9 3 9 6 0 12 -7 4 -12 2 -12 -3 0
-6 -7 -11 -16 -11 -11 0 -14 6 -9 23 4 15 3 18 -3 8 -6 -8 -12 -10 -16 -3 -7
11 -37 9 -57 -4 -8 -4 -9 1 -4 17 7 21 6 22 -9 10 -9 -8 -19 -11 -23 -7 -3 3
-1 6 5 6 7 0 12 5 12 11 0 5 -4 7 -10 4 -9 -6 -15 8 -11 29 1 5 -5 4 -13 -4
-12 -9 -19 -10 -29 -1 -8 6 -17 8 -21 4 -4 -4 -4 1 0 12 6 16 5 18 -7 8 -17
-17 -26 -16 -26 2 0 8 4 12 8 9 4 -2 11 1 15 8 4 7 4 10 -1 6 -4 -4 -15 -2
-23 5 -13 9 -14 9 -8 0 4 -7 2 -13 -3 -13 -10 0 -15 14 -12 33 1 5 -3 6 -9 2
-6 -3 -8 -10 -5 -15 3 -5 1 -12 -5 -15 -6 -4 -9 -1 -8 6 2 6 -3 14 -11 17 -8
2 -11 0 -8 -5 3 -5 0 -10 -8 -10 -12 0 -12 4 2 21 18 20 18 20 -11 2 -16 -10
-25 -13 -22 -7 4 6 1 11 -6 11 -8 0 -9 3 -3 8 6 4 11 16 13 27 4 20 4 20 -11
0 -9 -11 -19 -17 -23 -12 -4 4 -2 7 4 7 7 0 12 4 12 10 0 5 -6 9 -12 7 -7 -1
-12 4 -10 11 1 8 -2 11 -8 7 -6 -4 -9 -14 -5 -22 4 -13 3 -14 -10 -3 -8 7 -12
17 -8 23 3 6 1 7 -6 3 -6 -4 -18 -2 -26 4 -8 7 -15 9 -15 5 0 -4 8 -14 17 -21
16 -12 16 -12 -4 -7 -13 3 -23 9 -23 14 0 15 -32 10 -54 -8 -17 -15 -18 -15
-8 -2 10 14 10 20 -3 33 -9 9 -19 16 -23 16 -3 0 -1 -5 6 -12 18 -18 14 -30
-5 -19 -13 7 -23 5 -37 -7 -11 -9 -16 -12 -13 -5 5 7 1 12 -10 12 -48 2 -53 4
-48 25 3 12 2 15 -1 8 -3 -6 -10 -9 -16 -6 -6 4 -6 -1 1 -14 8 -16 7 -23 -7
-33 -15 -13 -16 -12 -4 3 9 11 10 18 2 23 -5 3 -10 1 -10 -5 0 -8 -5 -8 -17
-1 -13 7 -23 5 -37 -7 -11 -9 -16 -12 -13 -6 4 7 -3 12 -18 12 -14 0 -22 -5
-18 -11 3 -6 1 -7 -6 -3 -6 4 -8 13 -4 19 4 7 0 6 -10 -2 -9 -7 -17 -10 -17
-5 0 5 -5 2 -10 -6 -8 -12 -10 -12 -10 -1 0 11 -5 9 -21 -5 -14 -13 -19 -14
-17 -4 2 7 -5 16 -16 18 -11 2 -16 0 -12 -6 3 -6 2 -14 -4 -17 -6 -4 -9 -1 -8
6 4 16 -22 19 -41 5 -10 -8 -15 -7 -19 2 -3 10 -7 10 -19 1 -9 -8 -17 -9 -21
-3 -4 5 -17 10 -30 10 -18 1 -22 -2 -17 -15 5 -12 3 -13 -6 -4 -13 13 -3 37
12 28 5 -3 6 2 2 11 -5 13 -3 15 7 9 8 -5 11 -4 7 3 -8 12 -32 10 -44 -3 -4
-4 -2 -5 5 -1 16 9 16 -9 0 -20 -19 -14 -48 -11 -59 6 -8 12 -9 11 -7 -5 2
-11 8 -23 13 -27 6 -5 6 -8 -2 -8 -6 0 -14 4 -18 9 -3 5 -19 8 -35 6 -24 -3
-30 0 -28 11 2 9 -8 23 -22 31 -17 10 -20 11 -10 2 21 -20 22 -35 2 -51 -16
-12 -16 -11 -2 6 14 18 13 19 -7 14 -24 -6 -43 7 -21 15 8 2 7 3 -2 3 -8 -1
-14 -9 -14 -18 1 -15 0 -16 -22 -1 -22 14 -24 14 -24 -1 0 -14 -2 -15 -14 -4
-8 8 -10 15 -4 19 5 3 3 9 -6 12 -9 4 -15 3 -14 -1 1 -4 -4 -18 -11 -32 -10
-17 -11 -25 -2 -28 7 -2 5 -10 -7 -20 -10 -10 -13 -14 -7 -10 16 10 55 6 48
-6 -4 -6 1 -6 13 -2 15 6 16 5 7 -5 -9 -9 -16 -9 -25 -1 -9 7 -19 7 -28 2 -8
-6 -10 -10 -5 -11 6 0 20 -2 33 -5 13 -2 31 0 40 5 19 10 42 4 42 -10 0 -6 -4
-8 -8 -5 -4 2 -8 -6 -8 -19 0 -13 4 -21 8 -19 5 3 6 10 3 15 -4 5 0 9 7 9 16
-1 54 -28 51 -38 -1 -4 1 -9 3 -11 2 -2 4 4 4 14 0 13 3 15 13 6 8 -6 18 -7
22 -3 5 4 5 1 1 -6 -4 -7 -12 -10 -17 -7 -5 4 -9 1 -9 -5 0 -12 32 -10 41 3 3
5 9 1 12 -8 4 -9 3 -13 -3 -10 -6 3 -10 1 -10 -4 0 -6 5 -11 11 -11 6 0 20
-10 31 -22 11 -13 17 -17 13 -10 -3 7 0 12 9 12 8 0 17 -6 19 -12 4 -9 6 -9 6
1 1 11 5 10 17 -5 15 -19 16 -19 9 1 -5 15 -3 17 6 8 14 -14 2 -36 -15 -30 -7
3 -13 -1 -13 -9 0 -7 4 -11 9 -8 5 3 16 0 25 -8 9 -7 18 -12 20 -10 1 1 4 2 6
1 1 0 19 -1 40 -2 20 -1 37 -5 37 -9 0 -5 0 -11 0 -14 0 -4 -7 -1 -15 6 -8 7
-15 8 -15 4 0 -15 38 -35 45 -23 5 7 11 6 20 -1 10 -8 15 -7 19 2 3 7 3 3 1
-9 -3 -12 0 -25 6 -29 7 -4 9 -3 6 3 -4 6 0 14 9 17 8 3 12 2 9 -4 -3 -6 -1
-10 6 -10 7 0 5 -8 -7 -22 l-19 -21 27 17 c17 11 28 14 33 6 3 -6 11 -7 17 -4
7 4 8 2 4 -5 -4 -6 -11 -9 -15 -7 -4 3 -8 -1 -8 -9 0 -17 13 -20 22 -5 6 10
55 -8 55 -20 0 -4 13 -13 30 -20 16 -7 30 -19 30 -26 0 -10 6 -11 26 -4 37 14
43 12 14 -6 -15 -9 -18 -13 -6 -9 12 3 24 -2 33 -15 8 -11 20 -20 26 -20 7 0
3 7 -7 15 -11 8 -15 15 -9 15 14 0 35 -25 27 -33 -4 -3 4 -6 17 -6 60 -1 62
-2 50 -14 -6 -6 -11 -15 -11 -21 0 -6 5 -5 12 2 7 7 17 12 22 12 6 0 5 -5 -2
-12 -16 -16 -15 -31 1 -21 18 11 38 13 31 2 -3 -5 -10 -7 -15 -4 -5 4 -9 1 -9
-4 0 -6 10 -9 23 -7 14 2 27 -4 35 -18 9 -14 12 -15 8 -3 -3 9 -1 17 4 17 9 0
14 -14 11 -32 0 -5 2 -7 7 -7 21 4 34 -2 29 -14 -5 -13 1 -15 60 -19 20 -2 29
-6 23 -12 -20 -20 -9 -26 12 -6 12 11 24 17 27 14 3 -4 0 -9 -6 -11 -7 -3 -13
-11 -13 -19 0 -8 -5 -14 -12 -14 -6 0 -8 -3 -5 -7 4 -3 15 2 26 11 14 13 21
14 27 5 4 -8 3 -10 -4 -5 -7 4 -12 2 -12 -5 0 -7 10 -9 25 -6 34 6 74 -25 58
-44 -9 -12 -6 -15 20 -16 18 0 35 3 38 9 3 5 9 2 12 -7 4 -9 3 -14 -1 -11 -5
3 -9 -1 -9 -9 0 -13 3 -13 23 -1 29 20 41 6 13 -15 -23 -17 -23 -17 9 -13 31
4 44 -9 20 -19 -7 -3 2 -3 20 0 20 3 32 1 32 -6 0 -6 5 -11 11 -11 5 0 7 4 4
10 -4 6 1 7 11 3 14 -5 13 -8 -6 -18 -21 -11 -21 -12 9 -12 16 0 28 4 25 9 -3
4 2 5 10 2 13 -5 12 -9 -7 -26 l-22 -19 22 10 c16 8 24 8 29 -1 4 -6 3 -8 -4
-4 -6 3 -13 2 -16 -3 -7 -10 13 -9 31 2 6 4 15 2 19 -4 5 -8 3 -9 -6 -4 -9 6
-11 4 -5 -5 6 -10 11 -9 22 5 16 23 17 12 2 -18 -11 -21 -11 -21 7 -5 19 16
20 16 39 -12 18 -27 45 -45 30 -20 -3 6 -1 10 4 10 6 0 11 -9 11 -21 0 -19 1
-19 16 -5 19 19 25 20 22 4 -2 -7 2 -12 9 -11 7 2 10 -4 7 -12 -4 -10 0 -15
11 -15 9 0 13 -5 9 -11 -5 -8 1 -10 20 -7 14 3 29 1 32 -4 3 -4 10 -6 15 -2 5
3 9 2 8 -3 -4 -22 3 -33 19 -32 10 0 12 3 5 6 -7 2 -13 9 -13 15 0 7 5 7 13
-1 8 -6 18 -7 23 -3 4 4 3 0 -4 -10 -9 -11 -10 -18 -2 -23 6 -3 7 -11 4 -17
-4 -6 -2 -8 4 -5 15 10 43 -3 35 -16 -4 -6 -1 -7 7 -2 7 4 16 2 21 -6 6 -11
12 -10 27 5 14 11 22 14 27 6 3 -6 3 -10 -2 -9 -24 4 -25 -4 -3 -21 20 -16 21
-19 5 -14 -11 4 -16 3 -12 -1 4 -5 24 -8 44 -7 32 3 35 1 30 -18 -4 -17 -3
-19 9 -9 7 6 12 15 9 18 -2 4 2 8 9 8 7 0 13 -6 13 -13 0 -7 -4 -11 -9 -8 -4
3 -8 -1 -8 -9 0 -7 6 -14 13 -15 41 -3 52 -10 50 -33 -3 -23 -2 -23 12 -5 14
18 20 15 16 -8 -1 -5 6 -3 15 5 12 9 15 9 10 2 -7 -12 5 -18 27 -14 5 1 6 -3
2 -8 -3 -6 -12 -8 -19 -5 -8 3 -17 1 -21 -5 -4 -7 0 -8 11 -4 13 5 15 3 9 -7
-6 -10 -4 -11 6 -4 21 14 60 12 55 -2 -3 -8 2 -11 15 -9 21 4 26 -10 7 -18 -7
-3 2 -4 20 -2 18 2 30 0 27 -6 -4 -5 1 -9 9 -9 9 0 16 -5 16 -11 0 -7 10 -9
25 -5 18 5 27 1 35 -13 7 -14 7 -22 -2 -27 -7 -5 -8 -3 -3 6 5 9 4 11 -3 6
-17 -10 -15 -23 4 -30 8 -3 12 -2 9 4 -3 6 -1 10 4 10 6 0 11 -4 11 -9 0 -5
18 -9 40 -8 28 1 39 5 36 14 -7 16 11 27 20 12 5 -8 3 -9 -6 -4 -9 5 -11 4 -6
-4 4 -6 11 -9 16 -6 4 3 10 2 13 -2 2 -5 2 -3 1 4 -3 13 20 35 30 28 3 -3 2 1
-4 7 -7 9 -13 7 -23 -6 -13 -17 -14 -17 -20 -2 -4 9 -3 14 2 11 5 -3 13 0 16
6 4 5 13 8 20 5 8 -3 19 1 25 9 13 16 43 9 33 -8 -3 -6 -1 -7 6 -3 6 4 9 11 6
16 -7 11 4 18 39 24 16 3 31 8 35 12 3 4 -2 5 -11 1 -9 -3 -19 0 -22 8 -3 10
0 12 11 8 10 -4 14 -2 9 5 -3 6 -2 14 4 17 6 4 10 3 9 -2 -4 -23 3 -25 17 -5
12 17 19 20 33 12 16 -8 18 -5 14 18 -1 15 0 21 3 15 3 -7 10 -13 15 -13 6 0
7 6 3 13 -5 7 0 6 11 -3 11 -9 16 -10 11 -2 -4 7 -1 12 9 12 9 0 13 4 10 10
-3 5 0 7 9 4 8 -3 12 -13 10 -22 -5 -14 -4 -14 6 1 6 9 15 15 21 12 5 -4 9 -1
9 4 0 6 -4 12 -10 12 -5 1 -14 2 -19 3 -5 0 -12 4 -15 9 -3 4 -3 5 0 2 4 -2
20 5 37 17 l29 21 -12 -24 c-12 -21 -12 -23 2 -11 16 13 49 23 82 25 17 1 17
2 -2 15 -12 8 -18 20 -15 28 4 12 8 12 19 -3 13 -17 14 -17 25 0 5 9 14 15 20
12 5 -3 6 1 3 9 -3 9 -1 16 5 16 6 0 11 -4 11 -10 0 -18 20 -11 46 17 13 14
32 27 42 28 26 2 42 14 36 29 -3 7 2 13 11 13 9 0 14 -6 11 -14 -3 -8 -1 -11
4 -8 6 3 10 13 10 21 0 8 5 14 10 14 6 0 10 5 10 11 0 5 -4 7 -10 4 -6 -4 -7
1 -3 11 4 11 8 13 11 6 2 -7 9 -9 14 -6 6 4 8 3 5 -3 -3 -5 1 -10 9 -10 9 0
13 6 10 14 -3 8 -2 11 3 8 5 -3 17 5 25 17 9 12 16 18 16 13 0 -6 9 -16 20
-23 21 -13 21 -12 3 15 -16 25 -16 27 -1 15 15 -12 17 -11 13 8 -4 22 -4 22
16 4 19 -17 20 -17 13 2 -7 16 -6 17 8 6 13 -10 18 -10 24 -1 4 7 3 9 -3 6 -6
-4 -13 -1 -16 7 -5 11 0 13 24 6 18 -6 31 -5 35 2 4 6 2 8 -4 4 -6 -3 -13 -2
-17 4 -3 5 1 10 9 10 8 0 18 10 22 22 l6 21 13 -22 c10 -20 13 -21 18 -7 4 10
11 14 17 11 6 -3 7 1 4 9 -4 10 -1 16 10 16 10 0 13 -6 9 -17 -5 -15 -3 -14
10 2 8 11 13 23 11 27 -3 4 0 16 6 25 11 16 11 16 6 1 -3 -10 0 -20 6 -24 7
-5 8 -2 3 6 -6 10 -4 12 10 6 16 -6 16 -4 4 10 -13 16 -12 16 9 5 21 -11 24
-10 29 8 3 11 9 18 14 15 5 -3 7 -11 3 -17 -3 -7 1 -4 9 5 8 10 18 14 22 10 5
-4 5 -1 1 6 -4 7 -11 10 -16 7 -4 -3 -14 3 -21 13 -12 15 -12 16 1 5 10 -8 21
-9 30 -3 19 12 33 13 25 1 -3 -5 -1 -13 5 -16 6 -4 10 -3 9 2 -1 4 -1 19 0 32
1 23 1 23 19 4 9 -10 13 -13 8 -5 -8 10 -5 13 10 10 15 -2 18 2 16 22 -2 24
-1 23 13 -5 8 -16 13 -22 10 -12 -2 9 0 17 5 17 6 0 10 5 10 11 0 5 -4 7 -10
4 -5 -3 -10 -1 -10 4 0 6 7 11 16 11 9 0 12 5 8 12 -4 7 -3 8 4 4 6 -4 8 -14
5 -23 -4 -11 -3 -14 5 -9 7 4 12 14 12 22 0 8 5 14 11 14 5 0 8 -4 4 -9 -3 -5
0 -13 6 -17 8 -4 9 -3 5 4 -8 13 28 35 39 24 5 -4 5 -1 1 6 -4 7 -13 9 -19 5
-9 -5 -9 -3 0 8 10 12 10 18 0 29 -9 11 -8 11 7 0 16 -13 20 -12 33 5 13 17
15 17 10 3 -4 -10 -2 -18 3 -18 6 0 10 4 10 10 0 5 7 7 15 4 11 -5 14 -1 9 12
-3 11 1 8 10 -6 8 -14 15 -19 16 -12 0 8 5 10 13 6 6 -4 3 3 -8 17 -11 13 -16
21 -12 17 10 -8 48 22 41 33 -2 4 4 6 13 5 10 -2 22 2 26 8 5 6 6 0 2 -14 -5
-21 -4 -22 5 -7 6 9 15 15 20 12 5 -3 11 -1 15 5 4 6 10 8 14 6 4 -3 8 1 8 9
0 12 -4 12 -21 -2 -15 -14 -18 -14 -8 -2 6 9 10 19 7 22 -3 4 -2 5 2 2 3 -3
13 0 20 7 16 13 55 19 47 7 -6 -10 23 -5 33 6 4 4 3 5 -3 2 -7 -4 -14 0 -17 8
-5 12 -1 12 21 4 25 -10 26 -10 8 9 -13 15 -14 22 -5 28 7 4 10 3 6 -3 -8 -12
20 -26 34 -17 5 3 9 11 9 17 0 8 -3 8 -9 -2 -5 -7 -11 -9 -14 -5 -3 5 1 15 9
22 8 7 14 8 14 2 0 -13 47 -13 55 0 4 6 10 8 15 5 4 -3 6 4 3 15 -4 14 1 21
21 26 14 3 32 2 39 -2 7 -5 4 -1 -6 9 -21 19 -16 22 13 7 15 -8 21 -6 29 9 6
10 8 21 5 24 -3 3 3 3 15 0 13 -3 21 -1 21 6 0 7 -4 10 -8 7 -4 -2 -14 0 -22
5 -13 9 -13 10 0 6 8 -2 24 3 34 12 11 9 16 10 12 4 -9 -16 -1 -16 26 -2 16 9
23 8 29 -2 7 -11 9 -10 9 4 0 9 -5 17 -12 17 -6 0 -9 2 -6 5 9 10 38 -7 31
-18 -3 -5 -1 -7 4 -4 6 4 9 19 7 34 -2 16 -1 22 2 16 3 -7 10 -13 15 -13 6 0
7 5 3 12 -5 8 0 9 15 5 19 -4 21 -2 16 16 -5 17 -4 19 4 7 11 -15 59 -22 67
-9 2 4 -4 6 -15 4 -11 -2 -22 2 -24 10 -4 9 1 11 16 9 12 -2 16 -2 10 2 -19 9
-16 20 7 21 11 1 18 -2 16 -6 -3 -4 1 -8 9 -8 10 0 11 5 5 17 -6 11 -5 17 3
18 7 0 22 4 35 7 16 6 21 4 19 -6 -2 -8 -2 -11 0 -6 3 4 12 7 21 7 12 1 10 5
-8 16 l-25 15 25 -7 c23 -6 24 -6 10 11 -14 17 -14 17 8 6 22 -12 24 -11 18
11 -3 12 -3 17 0 10 3 -6 11 -9 16 -6 6 4 8 3 5 -3 -3 -5 0 -10 8 -10 8 0 12
4 9 9 -3 4 0 8 6 8 7 0 10 7 7 14 -4 10 -1 13 8 9 8 -3 12 -9 9 -14 -3 -5 -1
-9 4 -9 5 0 9 19 9 43 0 23 -2 37 -4 30 -2 -7 -11 -9 -19 -6 -13 5 -13 7 -2
14 11 7 10 10 -1 21 -11 10 -12 10 -7 0 4 -7 1 -15 -8 -18 -9 -3 -13 -11 -9
-17 3 -6 1 -7 -5 -3 -7 4 -8 15 -2 30 7 19 5 24 -5 22 -8 -1 -18 -6 -22 -11
-4 -4 -2 -5 5 -1 7 4 12 2 12 -7 0 -14 -29 -20 -31 -5 -1 4 -2 12 -3 17 0 5
-5 13 -9 18 -5 4 -7 4 -6 -2z m30 -50 c5 4 9 1 9 -4 0 -6 -4 -11 -8 -11 -12 0
-32 22 -32 35 0 5 5 2 11 -8 6 -9 14 -15 20 -12z m-2061 0 c-14 -17 -30 -20
-30 -4 0 5 4 8 9 4 5 -3 12 -1 16 5 3 5 9 10 12 10 3 0 0 -7 -7 -15z m1920 0
c-14 -17 -30 -20 -30 -4 0 5 4 8 9 4 5 -3 12 -1 16 5 3 5 9 10 12 10 3 0 0 -7
-7 -15z m-4609 -17 c11 -20 10 -21 -3 -11 -8 7 -18 10 -22 6 -4 -4 -4 0 0 10
8 22 11 22 25 -5z m654 12 c3 -5 1 -10 -4 -10 -6 0 -11 5 -11 10 0 6 2 10 4
10 3 0 8 -4 11 -10z m80 0 c3 -5 1 -10 -4 -10 -6 0 -11 5 -11 10 0 6 2 10 4
10 3 0 8 -4 11 -10z m80 0 c3 -5 1 -10 -4 -10 -6 0 -11 5 -11 10 0 6 2 10 4
10 3 0 8 -4 11 -10z m3360 0 c3 -5 1 -10 -4 -10 -6 0 -11 5 -11 10 0 6 2 10 4
10 3 0 8 -4 11 -10z m80 0 c3 -5 1 -10 -4 -10 -6 0 -11 5 -11 10 0 6 2 10 4
10 3 0 8 -4 11 -10z m80 0 c3 -5 1 -10 -4 -10 -6 0 -11 5 -11 10 0 6 2 10 4
10 3 0 8 -4 11 -10z m-2227 -23 c-1 -2 3 -11 10 -20 9 -10 10 -17 2 -22 -6 -4
-10 -3 -9 2 1 4 0 10 -1 13 -5 14 -8 41 -3 37 2 -3 3 -7 1 -10z m2717 2 c11
-16 1 -19 -13 -3 -7 8 -8 14 -3 14 5 0 13 -5 16 -11z m-1039 -18 c0 -17 -5
-18 -36 -11 -4 0 30 30 35 30 0 0 1 -8 1 -19z m-2561 -121 c-3 -5 -12 -10 -18
-10 -7 0 -6 4 3 10 19 12 23 12 15 0z m1107 3 c-6 -2 -9 -10 -6 -15 4 -7 2 -8
-5 -4 -13 9 -5 26 12 25 9 0 8 -2 -1 -6z m-994 -61 c5 -17 -13 -15 -27 2 -10
12 -9 14 5 12 10 -2 20 -8 22 -14z m47 -33 c11 -16 1 -19 -13 -3 -7 8 -8 14
-3 14 5 0 13 -5 16 -11z m-1034 -16 c12 -16 12 -17 -2 -6 -9 7 -18 10 -21 7
-3 -3 -9 -1 -13 5 -11 18 22 12 36 -6z m2149 1 c0 -8 -19 -13 -24 -6 -3 5 1 9
9 9 8 0 15 -2 15 -3z m101 -71 c-12 -20 -14 -14 -5 12 4 9 9 14 11 11 3 -2 0
-13 -6 -23z m1746 5 c-3 -8 -6 -5 -6 6 -1 11 2 17 5 13 3 -3 4 -12 1 -19z
m-1653 -50 c-3 -4 -11 -5 -19 -1 -21 7 -19 12 4 10 11 0 18 -5 15 -9z m1548
-10 c-9 -9 -15 -9 -24 1 -11 10 -10 11 5 6 10 -5 17 -2 17 6 0 7 3 9 7 6 4 -4
1 -13 -5 -19z m-3582 -28 c0 -5 -7 -7 -15 -4 -8 4 -15 8 -15 10 0 2 7 4 15 4
8 0 15 -4 15 -10z m1235 -120 c3 -5 1 -10 -4 -10 -6 0 -11 5 -11 10 0 6 2 10
4 10 3 0 8 -4 11 -10z m-908 -75 c0 -8 -4 -12 -9 -9 -5 3 -6 10 -3 15 9 13 12
11 12 -6z m77 -43 c3 -5 -1 -9 -9 -9 -8 0 -15 4 -15 9 0 4 4 8 9 8 6 0 12 -4
15 -8z m1661 -12 c3 -6 -1 -7 -9 -4 -18 7 -21 14 -7 14 6 0 13 -4 16 -10z
m956 -37 c13 -16 12 -17 -3 -4 -10 7 -18 15 -18 17 0 8 8 3 21 -13z m-2454
-45 c-3 -8 -6 -5 -6 6 -1 11 2 17 5 13 3 -3 4 -12 1 -19z m1038 -16 c-3 -3
-11 0 -18 7 -9 10 -8 11 6 5 10 -3 15 -9 12 -12z m1282 -17 c0 -8 -4 -12 -9
-9 -5 3 -6 10 -3 15 9 13 12 11 12 -6z m-1167 -45 c0 -5 -5 -10 -11 -10 -5 0
-7 5 -4 10 3 6 8 10 11 10 2 0 4 -4 4 -10z m-806 -116 c3 -8 2 -12 -4 -9 -6 3
-10 10 -10 16 0 14 7 11 14 -7z m1520 -115 c-3 -5 -10 -7 -15 -3 -5 3 -7 10
-3 15 3 5 10 7 15 3 5 -3 7 -10 3 -15z m-65 -22 c-13 -29 -36 -42 -36 -21 0 7
4 11 9 8 4 -3 13 6 20 20 6 15 13 24 15 22 2 -2 -2 -15 -8 -29z m-1156 -35 c3
7 5 3 4 -8 -1 -21 -1 -21 -39 4 -47 31 -50 41 -4 13 26 -16 35 -18 39 -9z
m1062 -11 c3 -5 2 -12 -3 -15 -5 -3 -9 1 -9 9 0 17 3 19 12 6z m-35 -46 c0 -2
-6 -5 -13 -8 -8 -3 -14 1 -14 8 0 7 6 11 14 8 7 -3 13 -6 13 -8z m-304 -157
c3 -4 -1 -5 -10 -4 -8 1 -18 5 -22 8 -3 4 1 5 10 4 8 -1 18 -5 22 -8z m-156
-62 c0 -2 -7 -7 -16 -10 -8 -3 -12 -2 -9 4 6 10 25 14 25 6z"/>
<path d="M90 2219 c0 -5 5 -7 10 -4 6 3 10 8 10 11 0 2 -4 4 -10 4 -5 0 -10
-5 -10 -11z"/>
<path d="M513 2210 c1 -21 10 -18 13 5 1 8 -2 15 -6 15 -5 0 -8 -9 -7 -20z"/>
<path d="M545 2220 c-3 -6 1 -7 9 -4 18 7 21 14 7 14 -6 0 -13 -4 -16 -10z"/>
<path d="M593 2212 c0 -10 7 -19 14 -19 9 0 10 4 3 12 -5 7 -7 15 -3 18 3 4 1
7 -5 7 -6 0 -10 -8 -9 -18z"/>
<path d="M737 2223 c-4 -3 -7 -11 -7 -17 0 -6 5 -5 12 2 6 6 9 14 7 17 -3 3
-9 2 -12 -2z"/>
<path d="M2286 2215 c-9 -26 -7 -32 5 -12 6 10 9 21 6 23 -2 3 -7 -2 -11 -11z"/>
<path d="M2433 2210 c1 -21 10 -18 13 5 1 8 -2 15 -6 15 -5 0 -8 -9 -7 -20z"/>
<path d="M2465 2220 c-3 -6 1 -7 9 -4 18 7 21 14 7 14 -6 0 -13 -4 -16 -10z"/>
<path d="M2513 2212 c0 -10 7 -19 14 -19 9 0 10 4 3 12 -5 7 -7 15 -3 18 3 4
1 7 -5 7 -6 0 -10 -8 -9 -18z"/>
<path d="M3094 2219 c-3 -6 -3 -13 0 -16 3 -4 6 -1 6 5 0 6 7 9 15 6 8 -4 15
-4 15 -1 0 11 -30 16 -36 6z"/>
<path d="M4033 2210 c1 -21 10 -18 13 5 1 8 -2 15 -6 15 -5 0 -8 -9 -7 -20z"/>
<path d="M4065 2220 c-3 -6 1 -7 9 -4 18 7 21 14 7 14 -6 0 -13 -4 -16 -10z"/>
<path d="M4113 2212 c0 -10 7 -19 14 -19 9 0 10 4 3 12 -5 7 -7 15 -3 18 3 4
1 7 -5 7 -6 0 -10 -8 -9 -18z"/>
<path d="M4257 2223 c-4 -3 -7 -11 -7 -17 0 -6 5 -5 12 2 6 6 9 14 7 17 -3 3
-9 2 -12 -2z"/>
<path d="M4417 2223 c-4 -3 -7 -11 -7 -17 0 -6 5 -5 12 2 6 6 9 14 7 17 -3 3
-9 2 -12 -2z"/>
<path d="M4545 2220 c-3 -6 1 -7 9 -4 18 7 21 14 7 14 -6 0 -13 -4 -16 -10z"/>
<path d="M224 2202 c0 -12 8 -17 27 -17 18 -1 25 3 22 13 -3 7 -11 11 -18 8
-7 -2 -17 0 -22 5 -5 5 -9 2 -9 -9z"/>
<path d="M640 2216 c0 -2 7 -9 15 -16 9 -7 15 -8 15 -2 0 5 -7 12 -15 16 -8 3
-15 4 -15 2z"/>
<path d="M800 2216 c0 -2 7 -9 15 -16 9 -7 15 -8 15 -2 0 5 -7 12 -15 16 -8 3
-15 4 -15 2z"/>
<path d="M2784 2202 c0 -12 8 -17 27 -17 18 -1 25 3 22 13 -3 7 -11 11 -18 8
-7 -2 -17 0 -22 5 -5 5 -9 2 -9 -9z"/>
<path d="M4160 2216 c0 -2 7 -9 15 -16 9 -7 15 -8 15 -2 0 5 -7 12 -15 16 -8
3 -15 4 -15 2z"/>
<path d="M4320 2216 c0 -2 7 -9 15 -16 9 -7 15 -8 15 -2 0 5 -7 12 -15 16 -8
3 -15 4 -15 2z"/>
<path d="M4704 2202 c0 -22 58 -24 64 -2 3 13 2 13 -7 0 -8 -12 -11 -12 -11
-1 0 7 -6 11 -14 8 -7 -3 -18 -1 -23 4 -5 5 -9 2 -9 -9z"/>
<path d="M410 2199 c0 -14 18 -20 25 -9 5 8 11 8 20 0 9 -8 15 -8 20 0 3 6 11
8 16 5 5 -4 9 -2 9 3 0 4 -20 8 -45 8 -25 0 -45 -3 -45 -7z"/>
<path d="M555 2201 c-6 -11 9 -23 19 -14 9 9 7 23 -3 23 -6 0 -12 -4 -16 -9z"/>
<path d="M685 2200 c3 -5 8 -10 11 -10 2 0 4 5 4 10 0 6 -5 10 -11 10 -5 0 -7
-4 -4 -10z"/>
<path d="M845 2200 c3 -5 8 -10 11 -10 2 0 4 5 4 10 0 6 -5 10 -11 10 -5 0 -7
-4 -4 -10z"/>
<path d="M930 2199 c0 -5 5 -7 10 -4 6 3 10 8 10 11 0 2 -4 4 -10 4 -5 0 -10
-5 -10 -11z"/>
<path d="M2184 2195 c8 -8 18 -15 22 -15 3 0 1 7 -6 15 -7 8 -17 15 -22 15 -5
0 -3 -7 6 -15z"/>
<path d="M2330 2199 c0 -14 18 -20 25 -9 5 8 11 8 20 0 9 -8 15 -8 20 0 3 6
11 8 16 5 5 -4 9 -2 9 3 0 4 -20 8 -45 8 -25 0 -45 -3 -45 -7z"/>
<path d="M2475 2201 c-6 -11 9 -23 19 -14 9 9 7 23 -3 23 -6 0 -12 -4 -16 -9z"/>
<path d="M2556 2202 c-3 -5 1 -9 9 -9 8 0 15 4 15 9 0 4 -4 8 -9 8 -6 0 -12
-4 -15 -8z"/>
<path d="M2636 2202 c-3 -5 1 -9 9 -9 8 0 15 4 15 9 0 4 -4 8 -9 8 -6 0 -12
-4 -15 -8z"/>
<path d="M4205 2200 c3 -5 8 -10 11 -10 2 0 4 5 4 10 0 6 -5 10 -11 10 -5 0
-7 -4 -4 -10z"/>
<path d="M4365 2200 c3 -5 8 -10 11 -10 2 0 4 5 4 10 0 6 -5 10 -11 10 -5 0
-7 -4 -4 -10z"/>
<path d="M4476 2202 c-3 -5 1 -9 9 -9 8 0 15 4 15 9 0 4 -4 8 -9 8 -6 0 -12
-4 -15 -8z"/>
<path d="M4556 2202 c-3 -5 1 -9 9 -9 8 0 15 4 15 9 0 4 -4 8 -9 8 -6 0 -12
-4 -15 -8z"/>
<path d="M3230 2155 c0 -8 4 -15 10 -15 5 0 7 7 4 15 -4 8 -8 15 -10 15 -2 0
-4 -7 -4 -15z"/>
<path d="M1116 2133 c-6 -14 -5 -15 5 -6 7 7 10 15 7 18 -3 3 -9 -2 -12 -12z"/>
<path d="M3771 2117 c-8 -10 -7 -14 2 -14 8 0 14 6 14 14 0 7 -1 13 -2 13 -2
0 -8 -6 -14 -13z"/>
<path d="M115 2089 c-4 -6 -5 -12 -2 -15 2 -3 7 2 10 11 7 17 1 20 -8 4z"/>
<path d="M2220 2096 c0 -2 8 -10 18 -17 15 -13 16 -12 3 4 -13 16 -21 21 -21
13z"/>
<path d="M3706 2076 c6 -15 4 -17 -6 -11 -9 6 -11 4 -5 -4 5 -9 10 -10 18 -2
8 8 7 14 -2 24 -10 10 -11 8 -5 -7z"/>
<path d="M166 2047 c3 -10 9 -15 12 -12 3 3 0 11 -7 18 -10 9 -11 8 -5 -6z"/>
<path d="M3380 2039 c0 -5 5 -7 10 -4 6 3 10 8 10 11 0 2 -4 4 -10 4 -5 0 -10
-5 -10 -11z"/>
<path d="M3630 2041 c0 -6 -6 -9 -12 -7 -7 1 -10 1 -5 -1 4 -3 4 -10 0 -16 -4
-7 2 -5 13 3 10 8 20 15 22 16 2 1 -1 5 -7 9 -6 3 -11 2 -11 -4z"/>
<path d="M4742 2041 c-11 -7 -11 -9 0 -14 9 -3 15 1 15 9 0 8 -1 14 -1 14 -1
0 -7 -4 -14 -9z"/>
<path d="M4515 1900 c-3 -5 -1 -10 4 -10 6 0 11 5 11 10 0 6 -2 10 -4 10 -3 0
-8 -4 -11 -10z"/>
<path d="M514 1846 c1 -8 5 -18 8 -22 4 -3 5 1 4 10 -1 8 -5 18 -8 22 -4 3 -5
-1 -4 -10z"/>
<path d="M4346 1812 c-3 -5 1 -9 9 -9 8 0 12 4 9 9 -3 4 -7 8 -9 8 -2 0 -6 -4
-9 -8z"/>
<path d="M640 1776 c0 -2 8 -10 18 -17 15 -13 16 -12 3 4 -13 16 -21 21 -21
13z"/>
<path d="M2813 1755 c0 -8 4 -15 9 -15 4 0 8 7 8 15 0 8 -4 15 -8 15 -5 0 -9
-7 -9 -15z"/>
<path d="M686 1718 c3 -5 10 -6 15 -3 13 9 11 12 -6 12 -8 0 -12 -4 -9 -9z"/>
<path d="M1855 1720 c-4 -6 -11 -7 -17 -4 -7 5 -8 2 -4 -5 5 -7 11 -10 14 -7
3 4 17 -1 31 -11 20 -13 23 -13 14 -1 -7 8 -10 18 -6 22 4 4 -1 4 -11 0 -14
-5 -17 -4 -12 4 4 7 5 12 2 12 -3 0 -8 -5 -11 -10z"/>
<path d="M4135 1700 c-3 -5 -1 -10 4 -10 6 0 11 5 11 10 0 6 -2 10 -4 10 -3 0
-8 -4 -11 -10z"/>
<path d="M2910 1680 c0 -5 6 -9 13 -7 6 1 11 -4 9 -11 -1 -8 2 -11 7 -7 14 8
2 35 -15 35 -8 0 -14 -4 -14 -10z"/>
<path d="M871 1643 c-1 -17 16 -25 25 -12 4 7 3 9 -4 5 -5 -3 -13 0 -15 6 -4
9 -6 10 -6 1z"/>
<path d="M4025 1630 c-10 -11 -15 -20 -11 -20 11 0 39 30 34 36 -3 2 -13 -5
-23 -16z"/>
<path d="M2823 1564 c0 -9 5 -10 19 -3 10 5 18 12 18 14 0 2 -8 3 -18 2 -10 0
-19 -7 -19 -13z"/>
<path d="M2113 1553 c12 -12 20 -14 28 -6 8 8 7 13 -2 18 -8 5 -10 4 -5 -3 4
-7 2 -12 -3 -12 -6 0 -11 5 -11 10 0 6 -5 10 -12 10 -8 0 -6 -6 5 -17z"/>
<path d="M3901 1561 c-10 -6 -9 -10 3 -14 8 -3 18 -2 21 3 8 13 -9 20 -24 11z"/>
<path d="M1246 1432 c-3 -5 1 -9 9 -9 8 0 12 4 9 9 -3 4 -7 8 -9 8 -2 0 -6 -4
-9 -8z"/>
<path d="M2458 1383 c6 -3 10 -9 7 -14 -4 -5 1 -6 9 -3 23 9 19 20 -6 21 -13
0 -17 -1 -10 -4z"/>
<path d="M1608 1202 c9 -10 19 -14 21 -9 2 5 -3 13 -10 18 -24 15 -30 10 -11
-9z"/>
<path d="M3299 1208 c-8 -27 -5 -36 9 -30 10 4 12 7 4 10 -7 2 -10 8 -6 13 3
5 3 9 0 9 -3 0 -6 -1 -7 -2z"/>
<path d="M1774 1118 c-4 -7 -4 -10 1 -6 4 4 14 0 22 -10 13 -15 13 -15 3 6
-12 25 -16 27 -26 10z"/>
<path d="M1835 1070 c3 -5 8 -10 11 -10 2 0 4 5 4 10 0 6 -5 10 -11 10 -5 0
-7 -4 -4 -10z"/>
<path d="M2070 926 c0 -2 9 -6 20 -9 11 -3 18 -1 14 4 -5 9 -34 13 -34 5z"/>
<path d="M2736 874 c-4 -9 -4 -19 -1 -22 3 -3 5 0 5 7 0 7 4 9 10 6 6 -3 7 1
4 9 -8 20 -10 20 -18 0z"/>
<path d="M2295 810 c-3 -5 -5 -10 -3 -11 19 -4 51 -9 47 -6 -2 1 -11 8 -21 15
-11 9 -18 10 -23 2z"/>
<path d="M2375 779 c-4 -6 -4 -13 -1 -16 3 -4 6 -1 6 6 0 7 5 9 10 6 6 -3 10
-1 10 4 0 14 -17 14 -25 0z"/>
</g>
</svg>
